<?xml version="1.0" encoding="UTF-8"?>
<svg version="1.1" xmlns="http://www.w3.org/2000/svg" width="1024" height="1024">
<path d="M0 0 C337.92 0 675.84 0 1024 0 C1024 337.92 1024 675.84 1024 1024 C686.08 1024 348.16 1024 0 1024 C0 686.08 0 348.16 0 0 Z " fill="#F0EBDF" transform="translate(0,0)"/>
<path d="M0 0 C35.97 0 71.94 0 109 0 C123.35863641 37.55335676 123.35863641 37.55335676 128.28662109 51.05273438 C131.64020406 60.2067993 135.11815576 69.31528453 138.58081055 78.4284668 C143.38704322 91.08104512 148.17578388 103.74018592 152.9392395 116.40893555 C153.59720432 118.15792997 154.25593863 119.90663513 154.91549683 121.6550293 C160.80507774 137.27145897 160.80507774 137.27145897 163.12890625 144.43359375 C164.70857743 149.28117577 166.60246791 153.93088335 168.59863281 158.62011719 C171.54061898 165.71573678 174.17624739 172.93417732 176.875 180.125 C178.05860591 183.27392413 179.24356728 186.4223346 180.4296875 189.5703125 C180.72389587 190.35142395 181.01810425 191.1325354 181.32122803 191.93731689 C183.37028721 197.3649069 185.45965942 202.77578281 187.5703125 208.1796875 C190.51599902 215.72366798 193.38477501 223.29367397 196.21136475 230.88299561 C197.65480912 234.7577629 199.10308201 238.63072709 200.55078125 242.50390625 C200.85487411 243.31749603 201.15896698 244.13108582 201.47227478 244.96932983 C207.26406921 260.46081817 213.08912168 275.93180321 219.16015625 291.31640625 C221.58624239 297.46919921 223.90133471 303.66174546 226.20458984 309.86132812 C227.73365782 313.97263428 229.27317709 318.08002465 230.8125 322.1875 C231.17327637 323.15059082 231.53405273 324.11368164 231.90576172 325.10595703 C234.62994386 332.369334 237.36920836 339.6269309 240.11328125 346.8828125 C240.66551109 348.34328758 240.66551109 348.34328758 241.22889709 349.83326721 C243.08352614 354.73782091 244.93910381 359.64201251 246.79614258 364.5456543 C250.18167461 373.49167356 253.55005212 382.44343736 256.859375 391.41796875 C257.13899078 392.17584183 257.41860657 392.9337149 257.70669556 393.71455383 C259.39034267 398.29496144 261.02209927 402.89071588 262.625 407.5 C264.05664055 411.54310215 265.60624681 415.43489403 267.4375 419.3125 C269.48213425 423.6583961 271.12882381 428.08278525 272.68359375 432.62109375 C275.77913397 441.51445884 279.15248468 450.28765669 282.57543945 459.05923462 C290.52381814 479.43654611 298.27320578 499.88683606 305.95947266 520.36425781 C306.75404386 522.47858625 307.54879997 524.59284521 308.34375 526.70703125 C308.91734756 528.23449478 308.91734756 528.23449478 309.50253296 529.79281616 C311.49210414 535.07179766 313.5167931 540.3343229 315.59375 545.57958984 C316.22247009 547.16860359 316.22247009 547.16860359 316.8638916 548.78971863 C317.66563726 550.80865545 318.47197834 552.82577527 319.28356934 554.84077454 C319.81899353 556.18742439 319.81899353 556.18742439 320.36523438 557.5612793 C320.68182007 558.34883102 320.99840576 559.13638275 321.32458496 559.94779968 C322 562 322 562 322 565 C287.68 565 253.36 565 218 565 C212.33260394 551.39824945 212.33260394 551.39824945 210.25 545.8125 C210.01104004 545.17231934 209.77208008 544.53213867 209.52587891 543.87255859 C206.6989902 536.25845274 203.97070687 528.60783105 201.24707031 520.95629883 C199.24926805 515.36733601 197.16242356 509.83329782 194.93359375 504.33251953 C193.48285189 500.70794114 192.14751048 497.04344354 190.8125 493.375 C188.45935314 486.94207182 186.07175 480.52345036 183.65209961 474.11523438 C179.82171047 463.96579895 176.11852447 453.78400756 172.57421875 443.53125 C171.55596229 440.58586974 170.5189268 437.64868147 169.45703125 434.71875 C169.1017334 433.73769287 169.1017334 433.73769287 168.73925781 432.73681641 C168.11105892 431.00858958 167.47949789 429.28158587 166.84765625 427.5546875 C166 425 166 425 166 423 C97.36 423 28.72 423 -42 423 C-42.66 426.3 -43.32 429.6 -44 433 C-44.91501024 436.12933501 -45.85674685 439.21857697 -46.875 442.3125 C-47.373026 443.85005645 -47.87040731 445.38782184 -48.3671875 446.92578125 C-48.62781982 447.73007568 -48.88845215 448.53437012 -49.15698242 449.36303711 C-50.4526724 453.41596137 -51.6954055 457.48484876 -52.94238281 461.55297852 C-54.76004588 467.47716706 -56.60027772 473.39435411 -58.4375 479.3125 C-58.83766878 480.60285767 -59.23781503 481.89322233 -59.63793945 483.18359375 C-62.90742335 493.72323592 -62.90742335 493.72323592 -64.484375 498.69921875 C-67.10353199 506.97337378 -69.54110627 515.28258139 -71.8581543 523.64648438 C-72.0931665 524.48501953 -72.32817871 525.32355469 -72.5703125 526.1875 C-72.77414551 526.92355469 -72.97797852 527.65960937 -73.18798828 528.41796875 C-74.31275914 531.99451012 -75.68355596 535.48948256 -77 539 C-79.64 547.58 -82.28 556.16 -85 565 C-117.34 565 -149.68 565 -183 565 C-181.87498452 557.12489163 -181.87498452 557.12489163 -180.60473633 553.26831055 C-180.32386673 552.40598312 -180.04299713 551.5436557 -179.75361633 550.65519714 C-179.44949326 549.74159927 -179.14537018 548.8280014 -178.83203125 547.88671875 C-178.51473557 546.91829544 -178.19743988 545.94987213 -177.87052917 544.95210266 C-176.85663138 541.86208042 -175.83467227 538.77479364 -174.8125 535.6875 C-174.14465662 533.65577167 -173.4773343 531.623872 -172.81054688 529.59179688 C-170.07457205 521.26431478 -167.31889472 512.94365036 -164.53259277 504.63287354 C-161.84167155 496.6018648 -159.26886091 488.54398926 -156.8125 480.4375 C-154.86573901 474.03338018 -152.90757521 467.6415482 -150.76635742 461.29956055 C-149.88645122 458.6592813 -149.04288894 456.00878664 -148.203125 453.35546875 C-144.77756897 442.53382585 -141.31871087 431.7404296 -137.43457031 421.07299805 C-135.38034232 415.35564948 -133.71680906 409.56153922 -132.07128906 403.71459961 C-130.27129362 397.47327539 -128.25916484 391.30145084 -126.25 385.125 C-125.80866307 383.76223729 -125.36742121 382.39944379 -124.92626953 381.03662109 C-121.96381914 371.89912724 -118.93942848 362.7831137 -115.88623047 353.67553711 C-113.32869554 346.03032994 -110.86138342 338.35877428 -108.41699219 330.67675781 C-105.03294445 320.0609582 -101.57901966 309.46819876 -98.125 298.875 C-92.8083266 282.56619453 -87.52266642 266.24790431 -82.26367188 249.92041016 C-80.11154562 243.24161089 -77.95333892 236.56477525 -75.79428101 229.88821411 C-75.31399586 228.40281328 -74.83386778 226.91736165 -74.35391235 225.43185425 C-71.93451001 217.94376914 -69.50660624 210.45944552 -67 203 C-60.08334051 182.35784047 -53.24115632 161.6939655 -46.54150391 140.98022461 C-43.83024063 132.60181921 -41.08708433 124.23559493 -38.29342651 115.8842926 C-35.22826949 106.71025316 -32.24067805 97.51102889 -29.25 88.3125 C-28.63185728 86.41316037 -28.01369291 84.51382779 -27.39550781 82.61450195 C-23.82683762 71.64526608 -20.28001813 60.66922375 -16.75 49.6875 C-13.38621749 39.23218177 -9.96738261 28.79632654 -6.5 18.375 C-6.28581421 17.72985443 -6.07162842 17.08470886 -5.85095215 16.42001343 C-5.24613918 14.59973758 -4.63874867 12.78031878 -4.03125 10.9609375 C-3.51401367 9.41092041 -3.51401367 9.41092041 -2.98632812 7.82958984 C-2.06691999 5.19198085 -1.03739013 2.59347532 0 0 Z " fill="#282824" transform="translate(357,196)"/>
<path d="M0 0 C25.41 0 50.82 0 77 0 C83.02649273 11.45033618 88.97359797 22.84591327 94.5625 34.5 C95.24091791 35.90789532 95.91972135 37.31560492 96.59887695 38.72314453 C97.65788595 40.91816792 98.71660328 43.11332766 99.77403259 45.30911255 C103.36593426 52.76758679 106.98667334 60.21195345 110.6081543 67.65609741 C116.66124097 80.09994153 122.67972022 92.55970523 128.66943359 105.03417969 C131.80456056 111.55196992 134.99500424 118.03737774 138.25610352 124.49291992 C140.58694177 129.12427759 142.80739872 133.80179528 145 138.5 C147.46867472 143.78908359 149.99258752 149.04047782 152.625 154.25 C156.51595651 161.9521803 160.25830929 169.72464475 164 177.5 C169.20684244 188.3158825 174.49197081 199.08562648 179.90917969 209.79785156 C187.4874636 224.802694 194.70397366 239.98110941 201.93359375 255.15625 C207.85344909 267.58683726 207.85344909 267.58683726 213.9375 279.9375 C214.25098389 280.56285645 214.56446777 281.18821289 214.88745117 281.83251953 C216.33887253 284.71944833 217.79711902 287.6026849 219.26660156 290.48046875 C228.01517751 307.61492057 236.03514648 325.02586115 243.90991211 342.5725708 C245.91059539 347.02773177 247.91664662 351.48047713 249.921875 355.93359375 C252.37447193 361.38065225 254.82634926 366.8280272 257.27392578 372.27734375 C257.64857971 373.11121109 258.02323364 373.94507843 258.40924072 374.80421448 C259.11495663 376.37513141 259.82033626 377.94619946 260.52532959 379.5174408 C262.21114997 383.28294509 262.21114997 383.28294509 264 387 C264.03010677 383.10418425 264.04715318 379.2083996 264.0625 375.3125 C264.07087891 374.24837891 264.07925781 373.18425781 264.08789062 372.08789062 C264.1075023 365.36108508 263.91124982 358.68077911 263.55953979 351.96502686 C262.84685732 337.59018962 262.38422001 323.20677834 261.94970703 308.82128906 C261.92751985 308.08852353 261.90533266 307.35575801 261.88247314 306.60078746 C260.93761103 275.16870928 260.72794921 243.75981868 260.7929235 212.31562172 C260.80776774 204.92530697 260.8102704 197.53499874 260.81251587 190.14467123 C260.8168122 176.98282746 260.82989217 163.82100954 260.84912109 150.65917969 C260.86769578 137.93131635 260.88174403 125.20346023 260.89013672 112.47558594 C260.89066217 111.68098834 260.89118761 110.88639074 260.89172898 110.06771442 C260.89434048 106.07845023 260.89686756 102.08918598 260.89935279 98.0999217 C260.91983195 65.39992481 260.95655687 32.69997645 261 0 C293.34 0 325.68 0 359 0 C359 186.45 359 372.9 359 565 C326 565 293 565 259 565 C255.37 557.74 251.74 550.48 248 543 C244.36754884 536.05982715 244.36754884 536.05982715 240.7109375 529.1328125 C231.74825458 512.18993315 223.00116462 495.14464752 214.5012207 477.96557617 C210.73104429 470.3695378 206.83550295 462.84916392 202.87207031 455.35217285 C198.68090791 447.41737492 194.58368715 439.43591754 190.49993896 431.44543457 C188.32292187 427.1862243 186.14202756 422.92900066 183.9609375 418.671875 C183.31543442 417.41186676 183.31543442 417.41186676 182.65689087 416.12640381 C179.08426028 409.15645909 175.48685804 402.19970936 171.875 395.25 C166.57703324 385.05551075 161.3131756 374.84389517 156.0625 364.625 C150.49221094 353.78489208 144.91418505 342.94892143 139.3125 332.125 C138.85505402 331.24104553 138.85505402 331.24104553 138.3883667 330.3392334 C136.25952014 326.2258402 134.12984216 322.11287776 132 318 C129.56195017 313.29195116 127.12423876 308.58372755 124.6875 303.875 C124.38268707 303.28599915 124.07787415 302.69699829 123.76382446 302.09014893 C120.02769163 294.86934075 116.30008523 287.644197 112.58203125 280.4140625 C112.20679321 279.68470993 111.83155518 278.95535736 111.44494629 278.2039032 C109.52504111 274.47098477 107.60877236 270.73626664 105.69873047 266.99829102 C102.22225667 260.20318365 98.71802177 253.43264428 95.05078125 246.73828125 C85.87157278 229.84768124 78.99528598 212.57664693 72.46815491 194.51519775 C67.68009019 181.29628224 62.68767271 168.15332596 57.7220459 155.00036621 C56.28855032 151.20304494 54.85731197 147.40487791 53.42690086 143.60639381 C46.63072202 125.55943486 39.81006974 107.52272295 32.80273438 89.55639648 C29.65016778 81.4496212 26.65395865 73.29637528 23.7265625 65.10546875 C18.57609513 50.70004968 13.10695647 36.42105661 7.62329102 22.13989258 C6.35937994 18.84561363 5.09941466 15.54984658 3.83984375 12.25390625 C3.45247543 11.24896622 3.06510712 10.24402618 2.66600037 9.20863342 C2.3146553 8.28843918 1.96331024 7.36824493 1.60131836 6.42016602 C1.29093124 5.61176773 0.98054413 4.80336945 0.66075134 3.97047424 C0 2 0 2 0 0 Z " fill="#2E674D" transform="translate(491,196)"/>
<path d="M0 0 C0.66 0 1.32 0 2 0 C2.27094482 0.98673706 2.27094482 0.98673706 2.54736328 1.9934082 C6.19634248 15.24660207 9.9617636 28.43449122 14.19775391 41.51220703 C15.05162869 44.16010235 15.89211827 46.81199394 16.73046875 49.46484375 C21.89434125 65.76930563 27.29943701 81.99082666 32.7303772 98.2077179 C34.4486835 103.34182567 36.15370146 108.48019245 37.8515625 113.62109375 C38.52196842 115.64708559 39.19261443 117.67299778 39.86334229 119.69888306 C40.47848 121.5598943 41.09061312 123.42189785 41.70263672 125.28393555 C43.65296699 131.16789087 45.73042931 136.94545022 48.08007812 142.68115234 C49.55514978 146.3993664 50.77357484 150.19408278 52 154 C53.54571367 158.72215526 55.08777123 163.41065095 57 168 C58.80539947 172.35071676 60.28442295 176.77661532 61.75 181.25 C64.35240256 189.1838065 67.15650185 197.03179643 70.02929688 204.87133789 C72.39258318 211.32104561 74.70758553 217.78547184 76.97900391 224.26806641 C78.70856787 229.1988303 80.49877573 234.10446382 82.3359375 238.99609375 C83 241 83 241 83 243 C32.18 243 -18.64 243 -71 243 C-67.63309353 230.65467626 -67.63309353 230.65467626 -66.0546875 225.85546875 C-65.70470703 224.78240479 -65.35472656 223.70934082 -64.99414062 222.60375977 C-64.62482422 221.47639404 -64.25550781 220.34902832 -63.875 219.1875 C-60.21927171 207.92542571 -56.74798749 196.62001986 -53.37207031 185.27050781 C-50.85129991 176.80620962 -48.2619178 168.36628205 -45.625 159.9375 C-41.85434233 147.87406141 -38.24045811 135.76827376 -34.6618042 123.64678955 C-31.96012625 114.49997636 -29.20570705 105.38120462 -26.25 96.3125 C-22.74026583 85.49760946 -19.84889985 74.53437449 -16.94433594 63.54443359 C-15.40000572 57.74800494 -13.81306283 51.96343014 -12.21920776 46.18045044 C-11.69938838 44.29316268 -11.18182102 42.4052551 -10.66430664 40.51733398 C-10.34582764 39.36177002 -10.02734863 38.20620605 -9.69921875 37.015625 C-9.27902466 35.48856934 -9.27902466 35.48856934 -8.8503418 33.93066406 C-8.27315696 31.94142296 -7.65055849 29.96491126 -6.98803711 28.00244141 C-6.00094903 25.0028839 -5.22059085 22.01727447 -4.4921875 18.9453125 C-4.22792969 17.83671875 -3.96367187 16.728125 -3.69140625 15.5859375 C-3.42199219 14.44382812 -3.15257812 13.30171875 -2.875 12.125 C-2.45927734 10.37703125 -2.45927734 10.37703125 -2.03515625 8.59375 C-1.35436425 5.72972847 -0.67605898 2.86514178 0 0 Z " fill="#EDEBDF" transform="translate(411,292)"/>
<path d="M0 0 C32.34 0 64.68 0 98 0 C98 38.28 98 76.56 98 116 C65.66 116 33.32 116 0 116 C0 77.72 0 39.44 0 0 Z " fill="#2D674D" transform="translate(391,644)"/>
<path d="M0 0 C2.06643315 2.06643315 2.54821768 3.11508894 3.47705078 5.80932617 C3.75167648 6.59665634 4.02630219 7.38398651 4.30924988 8.19517517 C4.74785088 9.48108299 4.74785088 9.48108299 5.1953125 10.79296875 C5.50386673 11.68258804 5.81242096 12.57220734 6.13032532 13.48878479 C7.13397969 16.38651155 8.12950621 19.28696075 9.125 22.1875 C9.81202599 24.17564774 10.49960794 26.16360344 11.18774414 28.15136719 C12.53350835 32.04115824 13.87637284 35.93192787 15.21630859 39.82373047 C17.27575643 45.80416178 19.35458447 51.7777032 21.4375 57.75 C22.04319907 59.49210744 22.64867418 61.23429276 23.25390625 62.9765625 C24.4684609 66.47190999 25.68481532 69.96662475 26.90234375 73.4609375 C27.55996271 75.34893504 28.21751419 77.23695609 28.875 79.125 C29.19678223 80.04901611 29.51856445 80.97303223 29.85009766 81.92504883 C31.7838091 87.48435091 33.70673188 93.04728836 35.62109375 98.61328125 C35.84464539 99.26294861 36.06819702 99.91261597 36.29852295 100.58197021 C37.39626853 103.772414 38.49281612 106.96325512 39.58740234 110.15478516 C42.08353886 117.41531313 42.08353886 117.41531313 44.79296875 124.59765625 C46 128 46 128 46 132 C23.56 132 1.12 132 -22 132 C-22.12375 122.71875 -22.2475 113.4375 -22.375 103.875 C-22.42962402 100.99507324 -22.48424805 98.11514648 -22.54052734 95.14794922 C-22.7036178 80.32502652 -21.53079772 67.28222058 -16.75146484 53.21704102 C-15.71575598 50.16139703 -14.81913382 47.06799333 -13.91015625 43.97265625 C-13.29794431 42.00145951 -12.6821308 40.03137728 -12.0625 38.0625 C-11.3849976 35.8868492 -10.70792411 33.71106481 -10.03125 31.53515625 C-9.52851563 29.92278076 -9.52851563 29.92278076 -9.015625 28.27783203 C-7.03122953 21.87338647 -5.10031437 15.45247192 -3.17016602 9.03149414 C-2.89873779 8.13422607 -2.62730957 7.23695801 -2.34765625 6.3125 C-2.11054932 5.52488281 -1.87344238 4.73726563 -1.62915039 3.92578125 C-1 2 -1 2 0 0 Z " fill="#2F674C" transform="translate(413,378)"/>
<path d="M0 0 C4.95 0 9.9 0 15 0 C16.093125 1.918125 17.18625 3.83625 18.3125 5.8125 C20.78218221 10.14216981 23.26542983 14.46356888 25.76953125 18.7734375 C26.24285889 19.5883667 26.71618652 20.4032959 27.20385742 21.24291992 C28.12332785 22.82454807 29.04398482 24.40548728 29.96606445 25.9855957 C33.42553132 31.93735979 36.6997316 37.94950793 40 44 C40.33 29.48 40.66 14.96 41 0 C44.96 0 48.92 0 53 0 C53 21.78 53 43.56 53 66 C48.38 66 43.76 66 39 66 C38.154375 64.43121094 37.30875 62.86242187 36.4375 61.24609375 C32.52977294 54.08078084 28.37679641 47.06620836 24.2109375 40.04882812 C23.62570312 39.05431641 23.04046875 38.05980469 22.4375 37.03515625 C21.92058594 36.1625415 21.40367187 35.28992676 20.87109375 34.39086914 C18.08716825 29.34573067 15.57696191 24.15392381 13 19 C12.67 34.51 12.34 50.02 12 66 C8.04 66 4.08 66 0 66 C0 44.22 0 22.44 0 0 Z " fill="#32332C" transform="translate(793,798)"/>
<path d="M0 0 C4.95 0 9.9 0 15 0 C15.5878125 1.794375 15.5878125 1.794375 16.1875 3.625 C17.45819041 7.43927218 18.79207803 11.22602464 20.15625 15.0078125 C23.30219193 23.79941682 26.33719482 32.62832446 29.35864258 41.46337891 C30.32542953 44.28777263 31.29651322 47.11066842 32.26757812 49.93359375 C32.88307644 51.73168051 33.49832058 53.5298543 34.11328125 55.328125 C34.40382889 56.17070862 34.69437653 57.01329224 34.99372864 57.88140869 C37 63.77152983 37 63.77152983 37 66 C32.71 66 28.42 66 24 66 C21.50000796 59.86365589 20.33864511 54.69322557 19 48 C11.41 48 3.82 48 -4 48 C-4.45375 49.85625 -4.9075 51.7125 -5.375 53.625 C-6.42097228 57.81880355 -7.53048615 61.93057703 -9 66 C-12.96 66 -16.92 66 -21 66 C-20.4387401 59.90514284 -19.07781373 54.60885771 -17.05078125 48.84765625 C-16.75568161 47.98925644 -16.46058197 47.13085663 -16.15653992 46.2464447 C-15.21581848 43.51587927 -14.26432075 40.78921356 -13.3125 38.0625 C-12.6926556 36.26782104 -12.07350943 34.47290076 -11.45507812 32.67773438 C-7.68934139 21.76669613 -3.8554463 10.87961818 0 0 Z " fill="#2A2A24" transform="translate(210,798)"/>
<path d="M0 0 C32.34 0 64.68 0 98 0 C98 38.28 98 76.56 98 116 C65.66 116 33.32 116 0 116 C0 77.72 0 39.44 0 0 Z M3 3 C2.70226832 5.05647704 2.70226832 5.05647704 2.75949097 7.45449829 C2.75674164 8.39121872 2.75399231 9.32793915 2.75115967 10.29304504 C2.75835022 11.32378647 2.76554077 12.35452789 2.77294922 13.41650391 C2.77265717 14.49944229 2.77236511 15.58238068 2.77206421 16.69813538 C2.77346172 20.29102488 2.78904282 23.88370906 2.8046875 27.4765625 C2.80841613 29.96235033 2.81126381 32.44813962 2.81326294 34.93392944 C2.82012874 40.81649086 2.83590453 46.69897602 2.85596192 52.58150613 C2.88049014 59.93453258 2.89124745 67.28756813 2.90234375 74.640625 C2.92381469 87.76045437 2.95758232 100.8802225 3 114 C6.85730459 115.2857682 10.49180882 115.13111459 14.51049805 115.11352539 C15.81325684 115.11374443 15.81325684 115.11374443 17.14233398 115.1139679 C20.01548757 115.11327076 22.88857648 115.10548761 25.76171875 115.09765625 C27.75283269 115.09579137 29.74394708 115.09436779 31.73506165 115.09336853 C36.97772486 115.0895489 42.22036041 115.07972332 47.4630127 115.06866455 C52.81192653 115.05843854 58.16084483 115.05386835 63.50976562 115.04882812 C74.00652258 115.03810058 84.50325899 115.02103077 95 115 C95.01184169 114.40134691 95.02368338 113.80269382 95.0358839 113.18589973 C95.99792262 64.58491188 95.99792262 64.58491188 96.78295898 50.23828125 C96.89008706 48.16035568 96.95162505 46.08012282 97 44 C96.67 43.67 96.34 43.34 96 43 C95.83958807 39.89914779 95.74036598 36.81812421 95.68359375 33.71484375 C95.66281265 32.78402481 95.64203156 31.85320587 95.62062073 30.8941803 C95.55502069 27.90869818 95.49619198 24.92312516 95.4375 21.9375 C95.3943247 19.91861024 95.35071075 17.8997298 95.30664062 15.88085938 C95.19932871 10.92066703 95.09809112 5.96038291 95 1 C83.30001563 0.95373261 71.6000529 0.91815935 59.8999958 0.89637566 C54.4676402 0.88592248 49.03534702 0.87173539 43.60302734 0.84912109 C38.36405699 0.8274473 33.12514681 0.81544294 27.8861351 0.81024551 C25.88377815 0.80653991 23.88142462 0.79930417 21.87909317 0.78853989 C19.08224527 0.77409753 16.2856485 0.772019 13.48876953 0.77294922 C12.65439362 0.76575867 11.8200177 0.75856812 10.96035767 0.75115967 C6.50874335 0.57860005 6.50874335 0.57860005 3 3 Z " fill="#325B43" transform="translate(391,644)"/>
<path d="M0 0 C4.95 0 9.9 0 15 0 C15.4125 1.258125 15.825 2.51625 16.25 3.8125 C17.13922838 6.5229365 18.07289268 9.1837503 19.125 11.8359375 C22.90265505 21.4112437 22.90265505 21.4112437 21 26 C19.37373596 27.38232443 17.7074998 28.71937515 16 30 C14.42212858 33.49385815 15.18606542 34.93032709 16 39 C10.39 39 4.78 39 -1 39 C0.12224421 32.26653477 0.12224421 32.26653477 1.19140625 28.8359375 C1.52495117 27.74152344 1.52495117 27.74152344 1.86523438 26.625 C2.33262951 25.11676697 2.80139459 23.60895783 3.27148438 22.1015625 C3.6030957 21.01101563 3.6030957 21.01101563 3.94140625 19.8984375 C4.24606812 18.91883057 4.24606812 18.91883057 4.55688477 17.91943359 C5.14996065 15.67873805 5.14996065 15.67873805 5 12 C4.01 11.34 3.02 10.68 2 10 C2 8.68 2 7.36 2 6 C2.639375 5.71125 3.27875 5.4225 3.9375 5.125 C6.15206079 4.17176549 6.15206079 4.17176549 7 2 C4.69 1.67 2.38 1.34 0 1 C0 0.67 0 0.34 0 0 Z " fill="#303029" transform="translate(210,798)"/>
<path d="M0 0 C68.31 0 136.62 0 207 0 C207 0.66 207 1.32 207 2 C140.01 2 73.02 2 4 2 C4 4.31 4 6.62 4 9 C3.34 9 2.68 9 2 9 C2 8.34 2 7.68 2 7 C1.01 7.33 0.02 7.66 -1 8 C-0.67 5.36 -0.34 2.72 0 0 Z " fill="#FAF9EE" transform="translate(315,620)"/>
<path d="M0 0 C49.17 0 98.34 0 149 0 C149 0.33 149 0.66 149 1 C144.38 1.33 139.76 1.66 135 2 C135 2.33 135 2.66 135 3 C90.45 3 45.9 3 0 3 C0 2.01 0 1.02 0 0 Z " fill="#1E1E16" transform="translate(341,535)"/>
<path d="M0 0 C16.94211077 -0.02338716 33.88421649 -0.04100773 50.82633972 -0.05181217 C58.69331401 -0.05696278 66.56027825 -0.0639819 74.42724609 -0.07543945 C81.28615577 -0.08542407 88.14505817 -0.09186242 95.00397491 -0.09408849 C98.63382366 -0.09538919 102.26365159 -0.09843436 105.89349365 -0.10573006 C109.95114048 -0.11381904 114.00875138 -0.1139887 118.06640625 -0.11352539 C119.26259079 -0.11712067 120.45877533 -0.12071594 121.69120789 -0.12442017 C127.53732864 -0.11720126 133.24438628 -0.09288758 139 1 C139.33 1.66 139.66 2.32 140 3 C93.47 3 46.94 3 -1 3 C-0.67 2.01 -0.34 1.02 0 0 Z " fill="#F9F7EC" transform="translate(350,531)"/>
<path d="M0 0 C12.87345181 -0.02313161 25.74689872 -0.04091929 38.62036705 -0.05181217 C44.59750475 -0.0570392 50.57462827 -0.0641336 56.55175781 -0.07543945 C62.31591558 -0.0862747 68.08005968 -0.0922782 73.84422684 -0.09487724 C76.04753459 -0.09673034 78.25084156 -0.10034875 80.45414352 -0.10573006 C83.53113189 -0.11294892 86.60806317 -0.11399058 89.68505859 -0.11352539 C90.60359116 -0.11712067 91.52212372 -0.12071594 92.4684906 -0.12442017 C93.30424118 -0.1230455 94.13999176 -0.12167084 95.00106812 -0.12025452 C95.72928457 -0.12117631 96.45750103 -0.1220981 97.20778465 -0.12304783 C99 0 99 0 101 1 C101 1.66 101 2.32 101 3 C98.2659091 3.91136363 96.75837189 4.11490989 93.95674133 4.08229065 C93.1364444 4.07525116 92.31614746 4.06821167 91.47099304 4.06095886 C90.57475723 4.04801285 89.67852142 4.03506683 88.75512695 4.02172852 C87.80859253 4.01212097 86.86205811 4.00251343 85.88684082 3.99261475 C82.75391261 3.95959751 79.62112265 3.91927541 76.48828125 3.87890625 C74.31780995 3.8546078 72.14733352 3.83076411 69.97685242 3.80735779 C64.26067257 3.74448949 58.5445835 3.67543054 52.82849121 3.60510254 C46.99703103 3.53444394 41.16550642 3.46961216 35.33398438 3.40429688 C23.88925212 3.27524912 12.44460727 3.13966433 1 3 C0.67 2.01 0.34 1.02 0 0 Z " fill="#E8F1E2" transform="translate(751,761)"/>
<path d="M0 0 C2.92746853 4.3912028 3.124188 8.28125684 3.14526367 13.47021484 C3.15164352 14.54258392 3.15802338 15.614953 3.16459656 16.71981812 C3.16570938 17.87188751 3.1668222 19.02395691 3.16796875 20.2109375 C3.17129715 21.41126617 3.17462555 22.61159485 3.17805481 23.84829712 C3.18311633 26.39186216 3.18546337 28.93543383 3.18530273 31.47900391 C3.18747234 35.32596175 3.20558974 39.17262477 3.22460938 43.01953125 C3.25154671 55.15317158 3.26472734 67.04377938 1 79 C1.66 79 2.32 79 3 79 C3.05847045 82.85410207 3.09375405 86.70808865 3.125 90.5625 C3.14175781 91.64853516 3.15851563 92.73457031 3.17578125 93.85351562 C3.21098659 99.64479442 2.98923674 104.54134642 1 110 C0.67 110 0.34 110 0 110 C0 73.7 0 37.4 0 0 Z " fill="#EDF9E8" transform="translate(490,649)"/>
<path d="M0 0 C0.66 0 1.32 0 2 0 C2.36351562 1.30710937 2.36351562 1.30710937 2.734375 2.640625 C4.7286571 9.72799678 6.84777174 16.71589715 9.265625 23.671875 C10 26 10 26 10 28 C4.39 28 -1.22 28 -7 28 C-5.87621614 21.25729681 -5.87621614 21.25729681 -4.84375 17.87109375 C-4.62589844 17.14599609 -4.40804687 16.42089844 -4.18359375 15.67382812 C-3.95800781 14.93583984 -3.73242188 14.19785156 -3.5 13.4375 C-1.47305534 6.78922606 -1.47305534 6.78922606 0 0 Z " fill="#EFEDE1" transform="translate(216,809)"/>
<path d="M0 0 C35.97 0 71.94 0 109 0 C109.495 3.465 109.495 3.465 110 7 C108.68 6.01 107.36 5.02 106 4 C106.33 3.34 106.66 2.68 107 2 C71.69 2 36.38 2 0 2 C0 1.34 0 0.68 0 0 Z " fill="#35352D" transform="translate(357,196)"/>
<path d="M0 0 C1.87109375 0.2890625 1.87109375 0.2890625 4 1 C7.67446918 7.01276775 9.29775555 13.19102219 11 20 C6.71 20 2.42 20 -2 20 C-4.20071901 14.49820249 -4.24196726 11.61842333 -3 6 C-1.4375 2.4375 -1.4375 2.4375 0 0 Z " fill="#2A2A24" transform="translate(236,844)"/>
<path d="M0 0 C2 2 2 2 2.13525391 3.93481445 C2.08288574 4.7362085 2.03051758 5.53760254 1.9765625 6.36328125 C1.92491943 7.29599854 1.87327637 8.22871582 1.82006836 9.18969727 C1.7556958 10.22022217 1.69132324 11.25074707 1.625 12.3125 C1.0183071 23.9042627 0.90592143 35.45765395 0.9375 47.0625 C0.93945374 47.90334137 0.94140747 48.74418274 0.94342041 49.61050415 C0.95549102 54.4070465 0.97462588 59.2035103 1 64 C0.01 64 -0.98 64 -2 64 C-2.04643926 56.54139144 -2.08192792 49.08281431 -2.10362434 41.62409019 C-2.11404008 38.16031138 -2.12815859 34.69663185 -2.15087891 31.23291016 C-2.17686317 27.24643156 -2.18649109 23.25999248 -2.1953125 19.2734375 C-2.21079636 17.41687027 -2.21079636 17.41687027 -2.22659302 15.52279663 C-2.22674408 14.3620462 -2.22689514 13.20129578 -2.22705078 12.00537109 C-2.231492 10.98833099 -2.23593323 9.97129089 -2.24050903 8.9234314 C-1.97489825 5.69488359 -1.13561533 3.02351474 0 0 Z " fill="#355E46" transform="translate(393,445)"/>
<path d="M0 0 C2.40575607 2.18517099 3.79535581 4.25919671 5.1875 7.1875 C5.53167969 7.90292969 5.87585938 8.61835937 6.23046875 9.35546875 C6.48441406 9.89816406 6.73835937 10.44085937 7 11 C5.68 11 4.36 11 3 11 C3.061875 11.928125 3.12375 12.85625 3.1875 13.8125 C3 17 3 17 1.5 18.875 C0.7575 19.431875 0.7575 19.431875 0 20 C-3.19747472 17.41156808 -5.39295145 14.07812102 -6 10 C-5.1435121 6.72208335 -3.83778818 3.84521359 -2 1 C-1.34 0.67 -0.68 0.34 0 0 Z " fill="#292923" transform="translate(815,812)"/>
<path d="M0 0 C0.33 0 0.66 0 1 0 C1.01981934 1.04865234 1.03963867 2.09730469 1.06005859 3.17773438 C1.13660773 7.09918676 1.22524568 11.02029172 1.31738281 14.94140625 C1.35547015 16.6327423 1.3903569 18.32415378 1.421875 20.015625 C1.46796898 22.45860606 1.52588559 24.90107681 1.5859375 27.34375 C1.59748871 28.08991577 1.60903992 28.83608154 1.62094116 29.6048584 C1.76089624 34.67729009 2.66067158 39.10511682 4 44 C4.3237503 47.45699472 4.58440679 50.83118643 3 54 C2.84824451 55.59262066 2.75099675 57.19064856 2.68359375 58.7890625 C2.64169922 59.73007812 2.59980469 60.67109375 2.55664062 61.640625 C2.51732422 62.62546875 2.47800781 63.6103125 2.4375 64.625 C2.39431641 65.61757813 2.35113281 66.61015625 2.30664062 67.6328125 C2.20038931 70.08839838 2.09835036 72.54408703 2 75 C1.67 75 1.34 75 1 75 C-0.06882465 49.99632539 -0.11194673 25.02267681 0 0 Z " fill="#476C55" transform="translate(752,424)"/>
<path d="M0 0 C2.36775721 2.36775721 2.99896496 4.29711338 4.125 7.4375 C4.47820312 8.40558594 4.83140625 9.37367188 5.1953125 10.37109375 C6 13 6 13 6 16 C5.34 16 4.68 16 4 16 C4 15.34 4 14.68 4 14 C-0.455 15.485 -0.455 15.485 -5 17 C-3.7915371 11.05064416 -2.25422333 5.63555833 0 0 Z " fill="#4E715B" transform="translate(413,378)"/>
<path d="M0 0 C2 2 2 2 3 9 C-19.44 9 -41.88 9 -65 9 C-65 8.67 -65 8.34 -65 8 C-43.22 7.67 -21.44 7.34 1 7 C0.505 3.535 0.505 3.535 0 0 Z " fill="#53715B" transform="translate(456,501)"/>
<path d="M0 0 C3.25696479 0.41755959 4.63443291 0.63443291 7 3 C6.34 3.66 5.68 4.32 5 5 C5 4.34 5 3.68 5 3 C-16.78 3 -38.56 3 -61 3 C-61 2.67 -61 2.34 -61 2 C-59.87580406 1.9845388 -59.87580406 1.9845388 -58.72889709 1.96876526 C-51.68009546 1.87095475 -44.63138126 1.76846424 -37.58272648 1.66066074 C-33.9585842 1.60539903 -30.3344339 1.551974 -26.71020508 1.50268555 C-23.21532901 1.45508968 -19.7205538 1.4027489 -16.22579765 1.34705925 C-14.23766177 1.31663587 -12.24945191 1.29118018 -10.26124573 1.26576233 C-8.45949135 1.2358445 -8.45949135 1.2358445 -6.62133789 1.20532227 C-5.55766495 1.18977798 -4.493992 1.1742337 -3.39808655 1.15821838 C-1.04804072 1.26771448 -1.04804072 1.26771448 0 0 Z " fill="#E6EADA" transform="translate(484,639)"/>
<path d="M0 0 C1.65 0 3.3 0 5 0 C5.27263672 1.04800781 5.27263672 1.04800781 5.55078125 2.1171875 C5.80214844 3.02726563 6.05351563 3.93734375 6.3125 4.875 C6.67794922 6.23238281 6.67794922 6.23238281 7.05078125 7.6171875 C7.86669852 10.32113319 7.86669852 10.32113319 11 12 C11.125 14.5625 11.125 14.5625 11 17 C11.33 17.33 11.66 17.66 12 18 C12.04063832 19.66617115 12.042721 21.33388095 12 23 C9.83868559 20.27049099 8.20823479 17.60606883 6.73828125 14.453125 C6.34189453 13.60878906 5.94550781 12.76445313 5.53710938 11.89453125 C5.13298828 11.02183594 4.72886719 10.14914062 4.3125 9.25 C3.68891602 7.91775391 3.68891602 7.91775391 3.05273438 6.55859375 C2.03103787 4.37427709 1.01362065 2.18807292 0 0 Z " fill="#3F6851" transform="translate(704,670)"/>
<path d="M0 0 C1.32 0.33 2.64 0.66 4 1 C4.33 1.99 4.66 2.98 5 4 C7.00016466 5.20882096 7.00016466 5.20882096 9 6 C8.34 6 7.68 6 7 6 C7 7.65 7 9.3 7 11 C7.66 11 8.32 11 9 11 C11.29648649 13.5614657 12 14.47967572 12 18 C11.01 18.33 10.02 18.66 9 19 C6.03 12.73 3.06 6.46 0 0 Z " fill="#3E674F" transform="translate(620,507)"/>
<path d="M0 0 C2.12961921 2.12961921 2.69856154 3.45994756 3.7265625 6.24609375 C4.0359375 7.08333984 4.3453125 7.92058594 4.6640625 8.78320312 C4.98117187 9.65912109 5.29828125 10.53503906 5.625 11.4375 C5.94984375 12.30955078 6.2746875 13.18160156 6.609375 14.08007812 C9 20.6141183 9 20.6141183 9 24 C8.34 24 7.68 24 7 24 C6.7525 23.278125 6.505 22.55625 6.25 21.8125 C5.12632041 18.89691093 5.12632041 18.89691093 2.875 16.625 C0.44421514 13.22190119 0.85330501 11.10745969 1 7 C0.36562656 5.3207762 -0.29289322 3.64991582 -1 2 C-0.67 1.34 -0.34 0.68 0 0 Z " fill="#D7E4D4" transform="translate(531,304)"/>
<path d="M0 0 C1.32 0.33 2.64 0.66 4 1 C3.73303908 4.91542687 3.50505719 6.53379336 0.5625 9.25 C-0.283125 9.8275 -1.12875 10.405 -2 11 C-2.66 11.66 -3.32 12.32 -4 13 C-5 12 -5 12 -5.0625 9.4375 C-5.041875 8.633125 -5.02125 7.82875 -5 7 C-4.01 6.67 -3.02 6.34 -2 6 C-0.77479736 2.99152582 -0.77479736 2.99152582 0 0 Z " fill="#272921" transform="translate(228,817)"/>
<path d="M0 0 C3.3 0 6.6 0 10 0 C9.38461538 6.52307692 9.38461538 6.52307692 7.4375 8.9375 C6.963125 9.288125 6.48875 9.63875 6 10 C6 7.69 6 5.38 6 3 C6.66 3 7.32 3 8 3 C8 2.34 8 1.68 8 1 C5.69 1 3.38 1 1 1 C1 8.92 1 16.84 1 25 C0.67 25 0.34 25 0 25 C0 16.75 0 8.5 0 0 Z " fill="#1C1C13" transform="translate(835,799)"/>
<path d="M0 0 C0.66 0 1.32 0 2 0 C2.22331199 1.58129029 2.42804644 3.16521089 2.625 4.75 C2.74101562 5.63171875 2.85703125 6.5134375 2.9765625 7.421875 C3.00298589 10.32844773 2.77546251 11.69501358 1 14 C-1.625 14.75 -1.625 14.75 -4 15 C-3.52229477 13.06213915 -3.04278429 11.12472326 -2.5625 9.1875 C-2.29566406 8.10855469 -2.02882813 7.02960938 -1.75390625 5.91796875 C-1.23922588 3.9259157 -0.65062825 1.95188476 0 0 Z " fill="#2C2C24" transform="translate(285,414)"/>
<path d="M0 0 C2.31 0 4.62 0 7 0 C6.67 3.63 6.34 7.26 6 11 C4.68 10.67 3.36 10.34 2 10 C0.40155515 6.40349908 0 3.96602757 0 0 Z " fill="#F5F3E7" transform="translate(510,311)"/>
<path d="M0 0 C2.66343273 3.33751138 4.70475504 6.88101852 6.75 10.625 C7.38421875 11.77226563 8.0184375 12.91953125 8.671875 14.1015625 C9.11015625 15.05804687 9.5484375 16.01453125 10 17 C9.67 17.66 9.34 18.32 9 19 C8.34 19 7.68 19 7 19 C5.74335022 16.09399739 5 14.20395416 5 11 C4.01 11 3.02 11 2 11 C-1.07692308 4.6 -1.07692308 4.6 -0.6875 1.5625 C-0.460625 1.046875 -0.23375 0.53125 0 0 Z " fill="#DCEBD9" transform="translate(715,693)"/>
<path d="M0 0 C2.76393885 3.15878726 3.96537967 6.36915052 5.25390625 10.29296875 C5.87154003 12.20262879 5.87154003 12.20262879 8 13 C8.4140625 15.94140625 8.4140625 15.94140625 8.625 19.5625 C8.69976563 20.76003906 8.77453125 21.95757812 8.8515625 23.19140625 C8.90054688 24.11824219 8.94953125 25.04507812 9 26 C6.38759218 22.08138828 4.99318486 17.96646246 3.375 13.5625 C3.05015625 12.70333984 2.7253125 11.84417969 2.390625 10.95898438 C2.08382813 10.12818359 1.77703125 9.29738281 1.4609375 8.44140625 C1.18040527 7.68545166 0.89987305 6.92949707 0.61083984 6.15063477 C0 4 0 4 0 0 Z " fill="#395E48" transform="translate(507,236)"/>
<path d="M0 0 C0.66 0 1.32 0 2 0 C2.99 4.29 3.98 8.58 5 13 C2.69 12.67 0.38 12.34 -2 12 C-1.44687265 7.97007218 -0.8441938 3.97977076 0 0 Z " fill="#CFCEC6" transform="translate(411,292)"/>
<path d="M0 0 C0.66 0 1.32 0 2 0 C3.19984797 2.26504965 4.38494769 4.53589888 5.5625 6.8125 C5.90474609 7.45509766 6.24699219 8.09769531 6.59960938 8.75976562 C7.4765023 10.46926395 8.24515617 12.23321294 9 14 C8.67 14.99 8.34 15.98 8 17 C7.67 15.68 7.34 14.36 7 13 C5.68 13 4.36 13 3 13 C2.49242138 11.58603098 1.99425075 10.16868271 1.5 8.75 C1.08234375 7.56664062 1.08234375 7.56664062 0.65625 6.359375 C0 4 0 4 0 0 Z " fill="#DBEBDB" transform="translate(688,642)"/>
<path d="M0 0 C0.33 0 0.66 0 1 0 C1 6.27 1 12.54 1 19 C-1.95987945 16.04012055 -3.40595059 13.82571858 -5 10 C-4.67 9.01 -4.34 8.02 -4 7 C-2.68 7.66 -1.36 8.32 0 9 C0 6.03 0 3.06 0 0 Z " fill="#F4F3EA" transform="translate(833,824)"/>
<path d="M0 0 C2.24269478 3.36404218 3.38655744 6.75716923 4.625 10.5625 C4.85445313 11.24763672 5.08390625 11.93277344 5.3203125 12.63867188 C7 17.73272414 7 17.73272414 7 20 C5.68 19.67 4.36 19.34 3 19 C3.04125 18.21625 3.0825 17.4325 3.125 16.625 C3.28728734 13.83883881 3.28728734 13.83883881 1 12 C0.875 8.875 0.875 8.875 1 6 C0.34 6 -0.32 6 -1 6 C-0.67 4.02 -0.34 2.04 0 0 Z " fill="#486E58" transform="translate(447,474)"/>
<path d="M0 0 C0.33 0 0.66 0 1 0 C1.33 4.95 1.66 9.9 2 15 C1.01 15 0.02 15 -1 15 C-3.32590854 11.36576791 -3.16265833 8.22911669 -3 4 C-2.34 3.67 -1.68 3.34 -1 3 C-0.67 2.01 -0.34 1.02 0 0 Z " fill="#23231C" transform="translate(477,470)"/>
<path d="M0 0 C2 2 2 2 2.1875 5.75 C2.1047681 9.23746762 1.68505673 12.57471633 1 16 C-2.875 14.25 -2.875 14.25 -4 12 C-3.43100339 9.93560025 -2.77181998 7.89548723 -2.0625 5.875 C-1.68222656 4.77929688 -1.30195313 3.68359375 -0.91015625 2.5546875 C-0.60980469 1.71164062 -0.30945313 0.86859375 0 0 Z " fill="#373630" transform="translate(210,646)"/>
<path d="M0 0 C0.33 0 0.66 0 1 0 C1.19384179 2.81219705 1.38036603 5.62454196 1.5625 8.4375 C1.61857422 9.23994141 1.67464844 10.04238281 1.73242188 10.86914062 C1.8616295 12.91062111 1.9351273 14.95546369 2 17 C1.67 17.33 1.34 17.66 1 18 C0.84285346 19.63256758 0.74914586 21.27135338 0.68359375 22.91015625 C0.64169922 23.89951172 0.59980469 24.88886719 0.55664062 25.90820312 C0.51732422 26.94912109 0.47800781 27.99003906 0.4375 29.0625 C0.39431641 30.10728516 0.35113281 31.15207031 0.30664062 32.22851562 C0.20018775 34.81886884 0.0981724 37.40932186 0 40 C-0.33 40 -0.66 40 -1 40 C-1.02945039 35.58334775 -1.04694816 31.16672133 -1.0625 26.75 C-1.07087891 25.51507812 -1.07925781 24.28015625 -1.08789062 23.0078125 C-1.10821886 15.28308496 -0.79005315 7.68498153 0 0 Z " fill="#51765F" transform="translate(755,496)"/>
<path d="M0 0 C0.33 1.32 0.66 2.64 1 4 C1.66 4 2.32 4 3 4 C3.2475 4.78375 3.495 5.5675 3.75 6.375 C5.15389099 9.32317108 6.00675737 9.9024777 9 11 C9 13.66666667 9 16.33333333 9 19 C8.34 19.33 7.68 19.66 7 20 C5.63311253 17.04738074 4.28370462 14.08709966 2.9375 11.125 C2.54755859 10.28324219 2.15761719 9.44148438 1.75585938 8.57421875 C1.39169922 7.76855469 1.02753906 6.96289062 0.65234375 6.1328125 C0.31195068 5.38918457 -0.02844238 4.64555664 -0.37915039 3.87939453 C-1 2 -1 2 0 0 Z " fill="#E0EDDC" transform="translate(669,399)"/>
<path d="M0 0 C0.33 0 0.66 0 1 0 C1.3973102 3.35191067 1.76375894 6.70652597 2.125 10.0625 C2.23714844 11.00544922 2.34929688 11.94839844 2.46484375 12.91992188 C3.05189823 18.53607644 2.98729212 22.693194 1 28 C0.67 28 0.34 28 0 28 C0 18.76 0 9.52 0 0 Z " fill="#2F5A42" transform="translate(755,516)"/>
<path d="M0 0 C3.57983659 3.34118082 5.89716734 5.73768141 6.125 10.75 C6.08375 11.4925 6.0425 12.235 6 13 C5.67 12.34 5.34 11.68 5 11 C4.01 11.495 4.01 11.495 3 12 C2.01 12 1.02 12 0 12 C0.33 10.68 0.66 9.36 1 8 C0.67 8 0.34 8 0 8 C0 5.36 0 2.72 0 0 Z " fill="#F3F2E8" transform="translate(440,389)"/>
<path d="M0 0 C0.66 0 1.32 0 2 0 C2.33 1.65 2.66 3.3 3 5 C2.01 5.495 2.01 5.495 1 6 C1.33 7.98 1.66 9.96 2 12 C1.01 12.33 0.02 12.66 -1 13 C-1.33 15.31 -1.66 17.62 -2 20 C-2.66 19.67 -3.32 19.34 -4 19 C-3.26309887 12.51527007 -1.64681249 6.30760257 0 0 Z " fill="#DAD8CD" transform="translate(216,809)"/>
<path d="M0 0 C4.62 0 9.24 0 14 0 C14 0.33 14 0.66 14 1 C11.69 1.33 9.38 1.66 7 2 C6.67 2.99 6.34 3.98 6 5 C3.69 5 1.38 5 -1 5 C-0.67 3.35 -0.34 1.7 0 0 Z " fill="#1B1B15" transform="translate(210,799)"/>
<path d="M0 0 C7.17307692 8.96634615 7.17307692 8.96634615 6.75 13.9375 C6.5025 14.618125 6.255 15.29875 6 16 C5.34 15.67 4.68 15.34 4 15 C4 14.34 4 13.68 4 13 C3.34 13 2.68 13 2 13 C0.54815522 8.46298506 -0.23509196 4.81938524 0 0 Z " fill="#DBEBDA" transform="translate(660,586)"/>
<path d="M0 0 C0.66 0.33 1.32 0.66 2 1 C2.144375 2.134375 2.28875 3.26875 2.4375 4.4375 C2.623125 5.613125 2.80875 6.78875 3 8 C3.99 8.66 4.98 9.32 6 10 C7.76732122 13.44162553 8.21977786 16.1538875 8 20 C4.87920377 17.35860319 3.46500134 14.22977229 1.75 10.5625 C1.20859375 9.42941406 0.6671875 8.29632813 0.109375 7.12890625 C-0.97961706 4.0574885 -1.24107438 2.93672833 0 0 Z " fill="#E3F0E1" transform="translate(713,487)"/>
<path d="M0 0 C2.08163365 3.12245047 3.32575613 6.07034881 4.6875 9.5625 C5.14511719 10.71878906 5.60273438 11.87507812 6.07421875 13.06640625 C7 16 7 16 6 18 C3.47740939 16.02579865 3.0070192 15.03254358 2.3125 11.8125 C2.209375 10.884375 2.10625 9.95625 2 9 C1.01 9 0.02 9 -1 9 C-0.67 6.03 -0.34 3.06 0 0 Z " fill="#D0E1D0" transform="translate(496,211)"/>
<path d="M0 0 C1.65 0.33 3.3 0.66 5 1 C4.01 4.63 3.02 8.26 2 12 C1.01 11.67 0.02 11.34 -1 11 C-1.0270043 9.54176788 -1.04639787 8.08339325 -1.0625 6.625 C-1.07410156 5.81289063 -1.08570313 5.00078125 -1.09765625 4.1640625 C-1 2 -1 2 0 0 Z " fill="#2F2E27" transform="translate(283,707)"/>
<path d="M0 0 C3.10916259 4.14555012 4.31562636 7.18750388 6 12 C3.69 11.67 1.38 11.34 -1 11 C-0.67 7.37 -0.34 3.74 0 0 Z " fill="#466F59" transform="translate(716,500)"/>
<path d="M0 0 C1.00496852 3.01490557 1.10335303 5.04181692 1.0625 8.1875 C1.05347656 9.08855469 1.04445313 9.98960937 1.03515625 10.91796875 C1.02355469 11.60503906 1.01195312 12.29210937 1 13 C0.34 13 -0.32 13 -1 13 C-1.33 13.66 -1.66 14.32 -2 15 C-2.22331199 13.41870971 -2.42804644 11.83478911 -2.625 10.25 C-2.74101563 9.36828125 -2.85703125 8.4865625 -2.9765625 7.578125 C-3.00228119 4.74906895 -2.48543786 3.37242594 -1 1 C-0.67 0.67 -0.34 0.34 0 0 Z " fill="#286145" transform="translate(758,473)"/>
<path d="M0 0 C0.66 0.33 1.32 0.66 2 1 C2 4.3 2 7.6 2 11 C0.35 11.33 -1.3 11.66 -3 12 C-2.69106068 10.3743193 -2.3777305 8.74947252 -2.0625 7.125 C-1.88847656 6.22007812 -1.71445312 5.31515625 -1.53515625 4.3828125 C-1 2 -1 2 0 0 Z " fill="#DBDACC" transform="translate(375,421)"/>
<path d="M0 0 C3.17218843 3.62535821 4.42902597 7.51150278 6 12 C2.73953441 11.26051296 0.9747979 10.82113986 -1 8 C-1.6875 4.3125 -1.6875 4.3125 -2 1 C-1.34 0.67 -0.68 0.34 0 0 Z " fill="#476D55" transform="translate(595,252)"/>
<path d="M0 0 C0.33 0.66 0.66 1.32 1 2 C1.70125 1.814375 2.4025 1.62875 3.125 1.4375 C6.33888698 0.94843024 8.83560336 1.33768442 12 2 C12 2.99 12 3.98 12 5 C8.04 5 4.08 5 0 5 C0 3.35 0 1.7 0 0 Z " fill="#36362F" transform="translate(189,859)"/>
<path d="M0 0 C0.125 4.75 0.125 4.75 -1 7 C-1.35613097 8.66194453 -1.69208308 10.328451 -2 12 C-4.52742845 10.10442866 -4.97169284 9.19410622 -5.4375 6 C-5 3 -5 3 -3.0625 1.125 C-1 0 -1 0 0 0 Z " fill="#191A14" transform="translate(191,718)"/>
<path d="M0 0 C0.99 0 1.98 0 3 0 C3 1.32 3 2.64 3 4 C3.99 3.67 4.98 3.34 6 3 C6 5.31 6 7.62 6 10 C6.66 10 7.32 10 8 10 C8.33 12.31 8.66 14.62 9 17 C6.25945632 13.67513619 4.57623951 10.16942114 2.8125 6.25 C2.28269531 5.07953125 1.75289062 3.9090625 1.20703125 2.703125 C0.80871094 1.81109375 0.41039062 0.9190625 0 0 Z " fill="#406551" transform="translate(727,715)"/>
<path d="M0 0 C2.53548006 3.13916578 4.53698242 6.22695467 6 10 C5.1875 12.875 5.1875 12.875 4 15 C2.47657021 12.06195683 1.07229283 9.13439441 0 6 C0.33 5.34 0.66 4.68 1 4 C0.34 4 -0.32 4 -1 4 C-0.67 2.68 -0.34 1.36 0 0 Z " fill="#476C54" transform="translate(670,406)"/>
<path d="M0 0 C0.66 0.33 1.32 0.66 2 1 C1.60350587 2.79623856 1.18206548 4.58698435 0.75 6.375 C0.51796875 7.37273437 0.2859375 8.37046875 0.046875 9.3984375 C-1 12 -1 12 -3.109375 13.3515625 C-3.73328125 13.56554687 -4.3571875 13.77953125 -5 14 C-4.54177532 10.53058454 -4.10868317 7.32604951 -3 4 C-2.34 4 -1.68 4 -1 4 C-0.67 2.68 -0.34 1.36 0 0 Z " fill="#E9E5DA" transform="translate(310,332)"/>
<path d="M0 0 C1.90389849 2.85584773 2.69462177 4.9311762 3.625 8.1875 C3.88539063 9.08855469 4.14578125 9.98960937 4.4140625 10.91796875 C4.60742188 11.60503906 4.80078125 12.29210937 5 13 C3 13 3 13 1.375 11.75 C0 10 0 10 0 6 C-0.66 6 -1.32 6 -2 6 C-2 4.35 -2 2.7 -2 1 C-1.34 0.67 -0.68 0.34 0 0 Z " fill="#37372F" transform="translate(487,254)"/>
<path d="M0 0 C0.144375 0.598125 0.28875 1.19625 0.4375 1.8125 C0.8872439 3.56150404 1.42892341 5.28677023 2 7 C5.63 7.33 9.26 7.66 13 8 C13.33 6.68 13.66 5.36 14 4 C14.33 5.65 14.66 7.3 15 9 C9.39 9 3.78 9 -2 9 C-1 3 -1 3 0 0 Z " fill="#BEBEB5" transform="translate(211,828)"/>
<path d="M0 0 C2.25145318 2.86910848 4.10715572 5.77606385 5.8125 9 C6.50279297 10.2684375 6.50279297 10.2684375 7.20703125 11.5625 C8 14 8 14 7.13671875 16.3125 C6.76160156 16.869375 6.38648438 17.42625 6 18 C5.71125 17.2575 5.4225 16.515 5.125 15.75 C4.08887086 13.0723278 4.08887086 13.0723278 2.875 10.9375 C2 9 2 9 2 5 C1.34 5 0.68 5 0 5 C0 3.35 0 1.7 0 0 Z " fill="#4A725B" transform="translate(647,359)"/>
<path d="M0 0 C2.9375 1.125 2.9375 1.125 3.9375 2.125 C3.97813832 3.79117115 3.980221 5.45888095 3.9375 7.125 C2.9475 7.455 1.9575 7.785 0.9375 8.125 C0.6075 6.145 0.2775 4.165 -0.0625 2.125 C-1.7125 2.455 -3.3625 2.785 -5.0625 3.125 C-5.0625 2.135 -5.0625 1.145 -5.0625 0.125 C-3.0625 -0.875 -3.0625 -0.875 0 0 Z " fill="#E3E2D5" transform="translate(413.0625,303.875)"/>
<path d="M0 0 C0.66 0.66 1.32 1.32 2 2 C1.9765625 4.3828125 1.9765625 4.3828125 1.625 7.125 C1.51414062 8.03507812 1.40328125 8.94515625 1.2890625 9.8828125 C1.19367188 10.58148438 1.09828125 11.28015625 1 12 C0.01 12.33 -0.98 12.66 -2 13 C-3.18771723 9.57056481 -2.80226223 7.62215325 -1.5625 4.25 C-1.27503906 3.45078125 -0.98757813 2.6515625 -0.69140625 1.828125 C-0.46324219 1.22484375 -0.23507812 0.6215625 0 0 Z " fill="#36352C" transform="translate(263,482)"/>
<path d="M0 0 C2 0 2 0 3.5625 1.0625 C5.64774449 3.87304692 5.63836984 6.56451349 6 10 C6.226875 10.763125 6.45375 11.52625 6.6875 12.3125 C6.790625 12.869375 6.89375 13.42625 7 14 C6.34 14.66 5.68 15.32 5 16 C4.1605118 13.89828133 3.32860344 11.79353375 2.5 9.6875 C2.0359375 8.51574219 1.571875 7.34398437 1.09375 6.13671875 C0 3 0 3 0 0 Z " fill="#436A52" transform="translate(501,222)"/>
<path d="M0 0 C2.2477975 2.05233685 3.0022242 3.00667261 4 6 C3.01 6.99 2.02 7.98 1 9 C0.34 8.01 -0.32 7.02 -1 6 C-1.99 6.33 -2.98 6.66 -4 7 C-3.43628586 3.73045798 -2.50037734 2.17424117 0 0 Z " fill="#33342D" transform="translate(815,812)"/>
<path d="M0 0 C2.37616467 2.37616467 3.04068181 4.35349521 4.1875 7.5 C4.55230469 8.4796875 4.91710937 9.459375 5.29296875 10.46875 C6 13 6 13 5 15 C1.81746841 10.43837139 -0.2519164 6.2442508 -2 1 C-1.34 0.67 -0.68 0.34 0 0 Z " fill="#3A3930" transform="translate(671,740)"/>
<path d="M0 0 C0.66 0 1.32 0 2 0 C4.42857143 7.42857143 4.42857143 7.42857143 3 11 C2.01 10.34 1.02 9.68 0 9 C-0.99 9.33 -1.98 9.66 -3 10 C-2.67 9.01 -2.34 8.02 -2 7 C-1.01 7 -0.02 7 1 7 C0.34 5.02 -0.32 3.04 -1 1 C-0.67 0.67 -0.34 0.34 0 0 Z " fill="#F7F7EC" transform="translate(217,814)"/>
<path d="M0 0 C0.99 0 1.98 0 3 0 C3 1.32 3 2.64 3 4 C3.66 4 4.32 4 5 4 C5.66 6.97 6.32 9.94 7 13 C6.01 13 5.02 13 4 13 C2.68 8.71 1.36 4.42 0 0 Z " fill="#DDEBDB" transform="translate(427,416)"/>
<path d="M0 0 C0.66 0 1.32 0 2 0 C2.125 4.75 2.125 4.75 1 7 C0.64386903 8.66194453 0.30791692 10.328451 0 12 C-0.99 12 -1.98 12 -3 12 C-2.68950274 10.56206608 -2.3765224 9.1246682 -2.0625 7.6875 C-1.88847656 6.88699219 -1.71445313 6.08648438 -1.53515625 5.26171875 C-1 3 -1 3 0 0 Z " fill="#37362E" transform="translate(217,624)"/>
<path d="M0 0 C1.98 0.66 3.96 1.32 6 2 C6.66 5.3 7.32 8.6 8 12 C7.01 12.495 7.01 12.495 6 13 C4.02 8.71 2.04 4.42 0 0 Z " fill="#3E6750" transform="translate(672,608)"/>
<path d="M0 0 C0.33 1.32 0.66 2.64 1 4 C1.66 4 2.32 4 3 4 C3.66 5.32 4.32 6.64 5 8 C5.33 8 5.66 8 6 8 C6.125 10.875 6.125 10.875 6 14 C5.34 14.66 4.68 15.32 4 16 C2.35 11.05 0.7 6.1 -1 1 C-0.67 0.67 -0.34 0.34 0 0 Z " fill="#3D664F" transform="translate(531,299)"/>
<path d="M0 0 C0.66 0.33 1.32 0.66 2 1 C2 2.32 2 3.64 2 5 C2.99 5 3.98 5 5 5 C5.99 8.3 6.98 11.6 8 15 C7.34 15 6.68 15 6 15 C3.69 10.38 1.38 5.76 -1 1 C-0.67 0.67 -0.34 0.34 0 0 Z " fill="#3B644B" transform="translate(697,654)"/>
<path d="M0 0 C1.56633048 2.48770135 2.04100928 3.65552204 1.6875 6.625 C1 9 1 9 0 11 C-2.5625 11.625 -2.5625 11.625 -5 12 C-4.67 10.35 -4.34 8.7 -4 7 C-3.01 6.67 -2.02 6.34 -1 6 C-1.020625 5.195625 -1.04125 4.39125 -1.0625 3.5625 C-1 1 -1 1 0 0 Z " fill="#21201B" transform="translate(218,629)"/>
<path d="M0 0 C0.99 0 1.98 0 3 0 C2.67 3.63 2.34 7.26 2 11 C1.01 10.34 0.02 9.68 -1 9 C-0.67 6.03 -0.34 3.06 0 0 Z " fill="#395F47" transform="translate(406,399)"/>
<path d="M0 0 C0.99 0.33 1.98 0.66 3 1 C2.67 3.64 2.34 6.28 2 9 C0.68 9 -0.64 9 -2 9 C-1.34 6.03 -0.68 3.06 0 0 Z " fill="#E0DED3" transform="translate(352,496)"/>
<path d="M0 0 C2 1 2 1 2.8515625 3.28515625 C3.10679687 4.20167969 3.36203125 5.11820312 3.625 6.0625 C3.88539063 6.98160156 4.14578125 7.90070313 4.4140625 8.84765625 C4.60742188 9.55792969 4.80078125 10.26820313 5 11 C4.01 10.67 3.02 10.34 2 10 C1.01 10.495 1.01 10.495 0 11 C-1.28571429 3.57142857 -1.28571429 3.57142857 0 0 Z " fill="#303128" transform="translate(561,452)"/>
<path d="M0 0 C0.66 0 1.32 0 2 0 C2.2062536 3.71256479 1.68304629 5.73909781 0 9 C0 10.32 0 11.64 0 13 C-0.99 13.33 -1.98 13.66 -3 14 C-2.48594831 9.03083364 -1.76615118 4.70973649 0 0 Z " fill="#DEDED3" transform="translate(302,661)"/>
<path d="M0 0 C0.66 0.33 1.32 0.66 2 1 C0.68 4.96 -0.64 8.92 -2 13 C-2.66 12.67 -3.32 12.34 -4 12 C-4.625 8.9375 -4.625 8.9375 -5 6 C-4.360625 5.7525 -3.72125 5.505 -3.0625 5.25 C-0.81258459 4.18437567 -0.81258459 4.18437567 -0.25 1.875 C-0.1675 1.25625 -0.085 0.6375 0 0 Z " fill="#E2E1D4" transform="translate(348,218)"/>
<path d="M0 0 C2.35333796 4.70667591 2.17102038 6.8693886 2 12 C1.34 11.34 0.68 10.68 0 10 C-0.99 10.33 -1.98 10.66 -3 11 C-2.01 7.37 -1.02 3.74 0 0 Z " fill="#3E3C36" transform="translate(248,528)"/>
<path d="M0 0 C0.33 0 0.66 0 1 0 C1 3.63 1 7.26 1 11 C0.01 11.33 -0.98 11.66 -2 12 C-2.28571429 3.42857143 -2.28571429 3.42857143 0 0 Z " fill="#2A5F44" transform="translate(442,462)"/>
<path d="M0 0 C0.66 0 1.32 0 2 0 C2.05395478 1.62463842 2.09277195 3.24978541 2.125 4.875 C2.14820313 5.77992188 2.17140625 6.68484375 2.1953125 7.6171875 C2 10 2 10 0 12 C-1.0625 10.1875 -1.0625 10.1875 -2 8 C-1.67 7.01 -1.34 6.02 -1 5 C-0.65179959 3.33637583 -0.31595508 1.67004829 0 0 Z " fill="#21211C" transform="translate(468,448)"/>
<path d="M0 0 C2.475 0.99 2.475 0.99 5 2 C5 5.3 5 8.6 5 12 C3.20931427 9.3139714 2.33944209 7.3373411 1.375 4.3125 C1.11460937 3.50425781 0.85421875 2.69601562 0.5859375 1.86328125 C0.39257812 1.24839844 0.19921875 0.63351562 0 0 Z " fill="#3F6952" transform="translate(539,324)"/>
<path d="M0 0 C1.90389849 2.85584773 2.69462177 4.9311762 3.625 8.1875 C3.88539063 9.08855469 4.14578125 9.98960937 4.4140625 10.91796875 C4.60742188 11.60503906 4.80078125 12.29210937 5 13 C4.54625 12.505 4.0925 12.01 3.625 11.5 C2.12364481 9.77390663 2.12364481 9.77390663 0 10 C0 7.69 0 5.38 0 3 C-0.66 3 -1.32 3 -2 3 C-1 1 -1 1 0 0 Z " fill="#CDDECC" transform="translate(507,240)"/>
<path d="M0 0 C0.33 0 0.66 0 1 0 C1 4.62 1 9.24 1 14 C-2.08669204 10.91330796 -2.44855089 10.08072342 -3 6 C-2.34 5.67 -1.68 5.34 -1 5 C-0.34444881 2.47266765 -0.34444881 2.47266765 0 0 Z " fill="#DFF7E5" transform="translate(754,568)"/>
<path d="M0 0 C1.125 1.5625 1.125 1.5625 2 4 C1.125 7.75 1.125 7.75 0 11 C-0.66 10.67 -1.32 10.34 -2 10 C-2 7.03 -2 4.06 -2 1 C-1.34 0.67 -0.68 0.34 0 0 Z " fill="#35332B" transform="translate(345,511)"/>
<path d="M0 0 C0.66 0 1.32 0 2 0 C2 0.66 2 1.32 2 2 C2.66 2 3.32 2 4 2 C3.67 5.3 3.34 8.6 3 12 C2.34 11.67 1.68 11.34 1 11 C0.5859375 8.49609375 0.5859375 8.49609375 0.375 5.4375 C0.30023438 4.42558594 0.22546875 3.41367188 0.1484375 2.37109375 C0.09945313 1.58863281 0.05046875 0.80617187 0 0 Z " fill="#1B1B15" transform="translate(346,231)"/>
<path d="M0 0 C0.66 0 1.32 0 2 0 C2.99 2.97 3.98 5.94 5 9 C4.34 9 3.68 9 3 9 C2.67 9.66 2.34 10.32 2 11 C1.67 9.35 1.34 7.7 1 6 C0.67 6 0.34 6 0 6 C0 4.02 0 2.04 0 0 Z " fill="#467159" transform="translate(577,217)"/>
<path d="M0 0 C3.3 0 6.6 0 10 0 C10 0.33 10 0.66 10 1 C7.36 1 4.72 1 2 1 C2 2.32 2 3.64 2 5 C3.32 5.33 4.64 5.66 6 6 C3.69 6 1.38 6 -1 6 C-0.67 4.02 -0.34 2.04 0 0 Z " fill="#1E1F19" transform="translate(833,857)"/>
<path d="M0 0 C2.97 0.495 2.97 0.495 6 1 C5.01 1.33 4.02 1.66 3 2 C4.32 4.31 5.64 6.62 7 9 C5.68 9 4.36 9 3 9 C0 3.375 0 3.375 0 0 Z " fill="#325942" transform="translate(746,750)"/>
<path d="M0 0 C0.99 0 1.98 0 3 0 C3 0.66 3 1.32 3 2 C2.34 2 1.68 2 1 2 C1.0825 3.0725 1.165 4.145 1.25 5.25 C1 9 1 9 -1 11.4375 C-1.99 12.2109375 -1.99 12.2109375 -3 13 C-2.45144652 8.428721 -1.58255197 4.32564205 0 0 Z " fill="#33332A" transform="translate(200,677)"/>
<path d="M0 0 C0.33 0 0.66 0 1 0 C1 2.97 1 5.94 1 9 C0.01 9.33 -0.98 9.66 -2 10 C-2.33 8.02 -2.66 6.04 -3 4 C-2.34 4 -1.68 4 -1 4 C-0.67 2.68 -0.34 1.36 0 0 Z " fill="#23211C" transform="translate(545,665)"/>
<path d="M0 0 C0.99 0.33 1.98 0.66 3 1 C3.80078125 2.77734375 3.80078125 2.77734375 4.3125 4.9375 C4.49425781 5.64777344 4.67601562 6.35804688 4.86328125 7.08984375 C4.93095703 8.03537109 4.93095703 8.03537109 5 9 C4.34 9.66 3.68 10.32 3 11 C1.68 7.7 0.36 4.4 -1 1 C-0.67 0.67 -0.34 0.34 0 0 Z " fill="#DDECDB" transform="translate(702,467)"/>
<path d="M0 0 C0.66 0 1.32 0 2 0 C3.65 3.63 5.3 7.26 7 11 C6.01 10.67 5.02 10.34 4 10 C4 9.01 4 8.02 4 7 C3.34 7 2.68 7 2 7 C2 6.34 2 5.68 2 5 C1.34 4.67 0.68 4.34 0 4 C0 2.68 0 1.36 0 0 Z " fill="#D9EBD9" transform="translate(593,458)"/>
<path d="M0 0 C2.0625 0.4375 2.0625 0.4375 4 1 C4.33 3.31 4.66 5.62 5 8 C4.01 8 3.02 8 2 8 C1.01 5.69 0.02 3.38 -1 1 C-0.67 0.67 -0.34 0.34 0 0 Z " fill="#3F6A51" transform="translate(593,452)"/>
<path d="M0 0 C1.32 0.33 2.64 0.66 4 1 C4.33 3.97 4.66 6.94 5 10 C2.47671768 7.47671768 1.28600973 6.1655624 0 3 C0 2.01 0 1.02 0 0 Z " fill="#E6F3E3" transform="translate(594,247)"/>
<path d="M0 0 C0.66 0 1.32 0 2 0 C2 3.96 2 7.92 2 12 C1.34 12 0.68 12 0 12 C-0.19401633 10.18818595 -0.38004375 8.37551468 -0.5625 6.5625 C-0.66691406 5.55316406 -0.77132812 4.54382813 -0.87890625 3.50390625 C-0.91886719 2.67761719 -0.95882812 1.85132813 -1 1 C-0.67 0.67 -0.34 0.34 0 0 Z " fill="#22231C" transform="translate(233,580)"/>
<path d="M0 0 C0.99 0.33 1.98 0.66 3 1 C3 2.32 3 3.64 3 5 C2.34 5 1.68 5 1 5 C1 6.98 1 8.96 1 11 C-1 9 -1 9 -1.1875 5.5 C-1 2 -1 2 0 0 Z " fill="#23231C" transform="translate(547,418)"/>
<path d="M0 0 C1.79068573 2.6860286 2.66055791 4.6626589 3.625 7.6875 C3.88539063 8.49574219 4.14578125 9.30398438 4.4140625 10.13671875 C4.60742188 10.75160156 4.80078125 11.36648438 5 12 C4.01 12.33 3.02 12.66 2 13 C2 10.69 2 8.38 2 6 C1.01 5.67 0.02 5.34 -1 5 C-0.67 3.35 -0.34 1.7 0 0 Z " fill="#D2E3D1" transform="translate(564,392)"/>
<path d="M0 0 C0.33 0 0.66 0 1 0 C1 1.65 1 3.3 1 5 C1.99 4.67 2.98 4.34 4 4 C4.33 5.98 4.66 7.96 5 10 C4.01 10.495 4.01 10.495 3 11 C3 9.68 3 8.36 3 7 C1.68 6.67 0.36 6.34 -1 6 C-1.042721 4.33388095 -1.04063832 2.66617115 -1 1 C-0.67 0.67 -0.34 0.34 0 0 Z " fill="#2F5E44" transform="translate(564,383)"/>
<path d="M0 0 C1.9451 2.91765 2.45276317 4.62537285 3 8 C0.5625 7.625 0.5625 7.625 -2 7 C-2.33 6.34 -2.66 5.68 -3 5 C-1.5625 2.375 -1.5625 2.375 0 0 Z " fill="#D8D6CB" transform="translate(436,370)"/>
<path d="M0 0 C2.05123248 2.05123248 2.64147118 3.27005063 3.625 5.9375 C3.88539063 6.62714844 4.14578125 7.31679688 4.4140625 8.02734375 C5 10 5 10 5 13 C4.34 13 3.68 13 3 13 C2.87625 12.360625 2.7525 11.72125 2.625 11.0625 C2.41875 10.381875 2.2125 9.70125 2 9 C1.34 8.67 0.68 8.34 0 8 C0 5.36 0 2.72 0 0 Z " fill="#D0E4D1" transform="translate(550,355)"/>
<path d="M0 0 C0.99 0 1.98 0 3 0 C6 5.75 6 5.75 6 8 C5.34 8 4.68 8 4 8 C3.67 8.66 3.34 9.32 3 10 C0 3.375 0 3.375 0 0 Z " fill="#436A53" transform="translate(720,513)"/>
<path d="M0 0 C2.64465038 3.1254959 3.84414715 6.08788267 5 10 C3.68 10 2.36 10 1 10 C-0.1577506 6.52674819 -0.06866652 3.63932552 0 0 Z " fill="#CCE0CD" transform="translate(588,446)"/>
<path d="M0 0 C0.33 0.66 0.66 1.32 1 2 C1.66 2 2.32 2 3 2 C3.33 3.65 3.66 5.3 4 7 C2.02 7.33 0.04 7.66 -2 8 C-1.34 5.36 -0.68 2.72 0 0 Z " fill="#34332A" transform="translate(283,421)"/>
<path d="M0 0 C3 4 3 4 3 6 C2.34 6 1.68 6 1 6 C0.67 7.32 0.34 8.64 0 10 C-0.66 10 -1.32 10 -2 10 C-1.34 6.7 -0.68 3.4 0 0 Z " fill="#E2DFD7" transform="translate(381,400)"/>
<path d="M0 0 C-0.99 3.96 -1.98 7.92 -3 12 C-3.33 12 -3.66 12 -4 12 C-5.34588235 4.65882353 -5.34588235 4.65882353 -3.6875 1.5 C-2 0 -2 0 0 0 Z " fill="#DDEDDC" transform="translate(410,387)"/>
<path d="M0 0 C0.66 0.66 1.32 1.32 2 2 C1.625 5.625 1.625 5.625 1 9 C-0.32 9.33 -1.64 9.66 -3 10 C-2.01 6.7 -1.02 3.4 0 0 Z " fill="#414038" transform="translate(193,848)"/>
<path d="M0 0 C0.99 0.33 1.98 0.66 3 1 C2.67 2.98 2.34 4.96 2 7 C0.68 7.33 -0.64 7.66 -2 8 C-1.125 2.25 -1.125 2.25 0 0 Z " fill="#393A32" transform="translate(208,804)"/>
<path d="M0 0 C2 2 2 2 2.1953125 4.3828125 C2.17210937 5.28773438 2.14890625 6.19265625 2.125 7.125 C2.10695313 8.03507813 2.08890625 8.94515625 2.0703125 9.8828125 C2.04710937 10.58148437 2.02390625 11.28015625 2 12 C1.01 12.495 1.01 12.495 0 13 C-0.144375 11.9275 -0.28875 10.855 -0.4375 9.75 C-0.83749442 7.08337051 -1.27591924 4.58600271 -2 2 C-1.34 2 -0.68 2 0 2 C0 1.34 0 0.68 0 0 Z " fill="#F6F4E8" transform="translate(294,693)"/>
<path d="M0 0 C2.6855594 2.6855594 3.06049974 5.37621328 4 9 C2.35 8.67 0.7 8.34 -1 8 C-0.67 5.36 -0.34 2.72 0 0 Z " fill="#3D3D34" transform="translate(645,672)"/>
<path d="M0 0 C2.64465038 3.1254959 3.84414715 6.08788267 5 10 C2.525 9.01 2.525 9.01 0 8 C0 5.36 0 2.72 0 0 Z " fill="#CBDFCB" transform="translate(700,663)"/>
<path d="M0 0 C1.9451 2.91765 2.45276317 4.62537285 3 8 C1.35 8.66 -0.3 9.32 -2 10 C-1.34 6.7 -0.68 3.4 0 0 Z " fill="#34332B" transform="translate(617,598)"/>
<path d="M0 0 C0.66 0 1.32 0 2 0 C3.06775224 1.96466413 4.06553465 3.96855359 5 6 C4.67 6.66 4.34 7.32 4 8 C2.68 7.34 1.36 6.68 0 6 C0 4.02 0 2.04 0 0 Z " fill="#D9EBD9" transform="translate(642,553)"/>
<path d="M0 0 C0.66 0.66 1.32 1.32 2 2 C1.63318342 4.93453261 1.13562754 5.86437246 -1 8 C-2.0625 6.1875 -2.0625 6.1875 -3 4 C-2.67 3.01 -2.34 2.02 -2 1 C-1.34 0.67 -0.68 0.34 0 0 Z " fill="#F5F4E9" transform="translate(567,454)"/>
<path d="M0 0 C1.32 0.33 2.64 0.66 4 1 C4.33 2.98 4.66 4.96 5 7 C5.66 7 6.32 7 7 7 C6.67 7.99 6.34 8.98 6 10 C2.63408573 7.27521226 1.55773724 3.93143208 0 0 Z " fill="#DDEEDC" transform="translate(684,434)"/>
<path d="M0 0 C0.66 0.33 1.32 0.66 2 1 C2 3.97 2 6.94 2 10 C0 9 0 9 -2 6 C-1.45945946 1.45945946 -1.45945946 1.45945946 0 0 Z " fill="#1C1C15" transform="translate(309,347)"/>
<path d="M0 0 C2.29633824 3.44450737 2.54016485 5.93812283 3 10 C1.68 9.67 0.36 9.34 -1 9 C-0.67 6.03 -0.34 3.06 0 0 Z " fill="#22211B" transform="translate(395,334)"/>
<path d="M0 0 C3.08669204 3.08669204 3.44855089 3.91927658 4 8 C2.68 8.33 1.36 8.66 0 9 C0 6.03 0 3.06 0 0 Z " fill="#DBEADB" transform="translate(540,330)"/>
<path d="M0 0 C0.66 0 1.32 0 2 0 C2 1.98 2 3.96 2 6 C0.02 6.99 0.02 6.99 -2 8 C-1.125 1.125 -1.125 1.125 0 0 Z " fill="#F6F2E6" transform="translate(499,272)"/>
<path d="M0 0 C0.144375 1.093125 0.28875 2.18625 0.4375 3.3125 C0.88288104 6.93122987 0.88288104 6.93122987 2 10 C1.34 10.66 0.68 11.32 0 12 C-0.99 8.37 -1.98 4.74 -3 1 C-1 0 -1 0 0 0 Z " fill="#4A6E5A" transform="translate(519,261)"/>
<path d="M0 0 C1 2 2 4 3 6 C1.625 7.5 1.625 7.5 0 9 C-0.66 9 -1.32 9 -2 9 C-1.34 6.03 -0.68 3.06 0 0 Z " fill="#3B3931" transform="translate(176,751)"/>
<path d="M0 0 C0.99 0.33 1.98 0.66 3 1 C3.66 0.67 4.32 0.34 5 0 C6.125 3.75 6.125 3.75 5 6 C3.68 5.67 2.36 5.34 1 5 C0.67 3.35 0.34 1.7 0 0 Z " fill="#325D46" transform="translate(716,692)"/>
<path d="M0 0 C0.66 0.33 1.32 0.66 2 1 C1.67 3.31 1.34 5.62 1 8 C0.01 7.67 -0.98 7.34 -2 7 C-1.125 1.125 -1.125 1.125 0 0 Z " fill="#F4F2E6" transform="translate(628,614)"/>
<path d="M0 0 C2.52394612 3.12488567 4.39701907 6.31314387 6 10 C5.67 10.66 5.34 11.32 5 12 C4.01 11.01 3.02 10.02 2 9 C2.33 8.34 2.66 7.68 3 7 C2.34 7 1.68 7 1 7 C0.67 4.69 0.34 2.38 0 0 Z " fill="#4D6F5A" transform="translate(708,484)"/>
<path d="M0 0 C1.73267972 2.59901958 2.48482049 4.13842116 3.25 7.0625 C3.44078125 7.75472656 3.6315625 8.44695312 3.828125 9.16015625 C3.88484375 9.76730469 3.9415625 10.37445313 4 11 C3.34 11.66 2.68 12.32 2 13 C1.87625 12.195625 1.7525 11.39125 1.625 10.5625 C1.315625 9.2940625 1.315625 9.2940625 1 8 C0.34 7.67 -0.32 7.34 -1 7 C-0.67 4.69 -0.34 2.38 0 0 Z " fill="#50745E" transform="translate(438,448)"/>
<path d="M0 0 C0.66 0.66 1.32 1.32 2 2 C1.7578125 4.6015625 1.7578125 4.6015625 1.125 7.625 C0.81949219 9.12933594 0.81949219 9.12933594 0.5078125 10.6640625 C0.34023438 11.43492187 0.17265625 12.20578125 0 13 C-0.33 13 -0.66 13 -1 13 C-1.02686553 11.02090602 -1.04633375 9.04171029 -1.0625 7.0625 C-1.07410156 5.96035156 -1.08570313 4.85820312 -1.09765625 3.72265625 C-1 1 -1 1 0 0 Z " fill="#D6E7D3" transform="translate(392,438)"/>
<path d="M0 0 C0.99 0 1.98 0 3 0 C2.67 2.64 2.34 5.28 2 8 C1.01 7.34 0.02 6.68 -1 6 C-1.25 3.4375 -1.25 3.4375 -1 1 C-0.67 0.67 -0.34 0.34 0 0 Z " fill="#E0EEDD" transform="translate(397,419)"/>
<path d="M0 0 C0.99 0 1.98 0 3 0 C5.1519437 3.22791555 5.20086443 4.28400809 5 8 C4.01 7.67 3.02 7.34 2 7 C0.8125 3.4375 0.8125 3.4375 0 0 Z " fill="#3B624C" transform="translate(564,390)"/>
<path d="M0 0 C0.66 0 1.32 0 2 0 C3.5625 2.8125 3.5625 2.8125 5 6 C4.67 6.99 4.34 7.98 4 9 C0.06153846 5.67692308 0.06153846 5.67692308 -0.25 2.25 C-0.1675 1.5075 -0.085 0.765 0 0 Z " fill="#4E745D" transform="translate(632,330)"/>
<path d="M0 0 C0.33 0.99 0.66 1.98 1 3 C0.01 4.485 0.01 4.485 -1 6 C-0.34 6.33 0.32 6.66 1 7 C1 8.65 1 10.3 1 12 C0.67 11.01 0.34 10.02 0 9 C-0.99 8.67 -1.98 8.34 -3 8 C-3.36923077 3.44615385 -3.36923077 3.44615385 -1.5 1.1875 C-1.005 0.795625 -0.51 0.40375 0 0 Z " fill="#F6F3E8" transform="translate(408,314)"/>
<path d="M0 0 C2.46278801 2.46278801 2.99771255 4.70676982 4 8 C2.68 8 1.36 8 0 8 C-1.125 2.25 -1.125 2.25 0 0 Z " fill="#456F58" transform="translate(739,550)"/>
<path d="M0 0 C2.44839588 3.67259383 4 6.54648201 4 11 C3.34 11 2.68 11 2 11 C1.34 9.35 0.68 7.7 0 6 C-0.33 6 -0.66 6 -1 6 C-1.042721 4.33388095 -1.04063832 2.66617115 -1 1 C-0.67 0.67 -0.34 0.34 0 0 Z " fill="#CCDFCD" transform="translate(536,317)"/>
<path d="M0 0 C0.33 0 0.66 0 1 0 C1.33 2.64 1.66 5.28 2 8 C-0.475 9.485 -0.475 9.485 -3 11 C-2.01 7.37 -1.02 3.74 0 0 Z " fill="#423F38" transform="translate(345,231)"/>
<path d="M0 0 C0.66 0 1.32 0 2 0 C2 2.97 2 5.94 2 9 C1.01 9 0.02 9 -1 9 C-0.67 6.03 -0.34 3.06 0 0 Z " fill="#21211A" transform="translate(567,728)"/>
<path d="M0 0 C0.66 0 1.32 0 2 0 C3.06775224 1.96466413 4.06553465 3.96855359 5 6 C4.67 6.66 4.34 7.32 4 8 C3.34 8 2.68 8 2 8 C0.23537317 4.91190305 0 3.76687864 0 0 Z " fill="#D8EBDB" transform="translate(672,611)"/>
<path d="M0 0 C0.33 0.66 0.66 1.32 1 2 C0.06553465 4.03144641 -0.93224776 6.03533587 -2 8 C-4 5 -4 5 -4 1 C-2.68 0.67 -1.36 0.34 0 0 Z " fill="#EAE6DA" transform="translate(575,472)"/>
<path d="M0 0 C2.15377564 2.62198774 3.40072174 4.64404172 4 8 C2.35 7.67 0.7 7.34 -1 7 C-0.67 4.69 -0.34 2.38 0 0 Z " fill="#477058" transform="translate(686,439)"/>
<path d="M0 0 C0.66 0 1.32 0 2 0 C5 5.75 5 5.75 5 8 C4.01 8.33 3.02 8.66 2 9 C1.34 6.03 0.68 3.06 0 0 Z " fill="#D6E7D5" transform="translate(433,432)"/>
<path d="M0 0 C0.66 0 1.32 0 2 0 C2.66 2.31 3.32 4.62 4 7 C2.68 7.33 1.36 7.66 0 8 C0 5.36 0 2.72 0 0 Z " fill="#D7E9D6" transform="translate(571,413)"/>
<path d="M0 0 C0.33 0 0.66 0 1 0 C1.22786458 2.01822917 1.45572917 4.03645833 1.68359375 6.0546875 C1.91292961 8.07404316 1.91292961 8.07404316 3 10 C2.5625 12.125 2.5625 12.125 2 14 C1.34 14 0.68 14 0 14 C0 9.38 0 4.76 0 0 Z " fill="#1D1D17" transform="translate(372,410)"/>
<path d="M0 0 C2.6855594 2.6855594 3.06049974 5.37621328 4 9 C3.34 9.66 2.68 10.32 2 11 C-1.1097561 3.32926829 -1.1097561 3.32926829 0 0 Z " fill="#436950" transform="translate(640,344)"/>
<path d="M0 0 C2 1 2 1 4 4 C3.75 6.125 3.75 6.125 3 8 C2.01 8.495 2.01 8.495 1 9 C0.63877119 7.68942607 0.28619689 6.37646376 -0.0625 5.0625 C-0.35833984 3.96615234 -0.35833984 3.96615234 -0.66015625 2.84765625 C-0.77230469 2.23792969 -0.88445312 1.62820312 -1 1 C-0.67 0.67 -0.34 0.34 0 0 Z " fill="#E6E3D9" transform="translate(481,233)"/>
<path d="M0 0 C1.9451 2.91765 2.45276317 4.62537285 3 8 C1.68 7.67 0.36 7.34 -1 7 C-0.67 4.69 -0.34 2.38 0 0 Z " fill="#383731" transform="translate(473,217)"/>
<path d="M0 0 C0.33 0 0.66 0 1 0 C1 3.3 1 6.6 1 10 C0.34 9.67 -0.32 9.34 -1 9 C-1.75 6.125 -1.75 6.125 -2 3 C-1.34 2.01 -0.68 1.02 0 0 Z " fill="#F4F3E8" transform="translate(474,208)"/>
<path d="M0 0 C0.66 0 1.32 0 2 0 C3.06775224 1.96466413 4.06553465 3.96855359 5 6 C4.67 6.66 4.34 7.32 4 8 C2.68 7.34 1.36 6.68 0 6 C0 4.02 0 2.04 0 0 Z " fill="#406550" transform="translate(569,201)"/>
<path d="M0 0 C0.99 0.33 1.98 0.66 3 1 C3.1875 3.8125 3.1875 3.8125 3 7 C2.01 7.99 1.02 8.98 0 10 C0 6.7 0 3.4 0 0 Z " fill="#F5F4E9" transform="translate(846,836)"/>
<path d="M0 0 C0.66 0 1.32 0 2 0 C3.06775224 1.96466413 4.06553465 3.96855359 5 6 C4.67 6.66 4.34 7.32 4 8 C3.34 8 2.68 8 2 8 C0.74335022 5.09399739 0 3.20395416 0 0 Z " fill="#D0E1D2" transform="translate(720,704)"/>
<path d="M0 0 C0.33 1.32 0.66 2.64 1 4 C1.66 4 2.32 4 3 4 C3 4.99 3 5.98 3 7 C2.34 7 1.68 7 1 7 C0.67 7.66 0.34 8.32 0 9 C-0.66 6.69 -1.32 4.38 -2 2 C-1.34 2 -0.68 2 0 2 C0 1.34 0 0.68 0 0 Z " fill="#32302A" transform="translate(541,662)"/>
<path d="M0 0 C2.50298434 2.93828597 3.46930939 5.17902761 4 9 C3.01 8.67 2.02 8.34 1 8 C-0.35439668 5.29120665 -0.06501451 2.99066732 0 0 Z " fill="#DBEEDD" transform="translate(680,625)"/>
<path d="M0 0 C0.66 0.33 1.32 0.66 2 1 C2.625 4.0625 2.625 4.0625 3 7 C1.68 7.33 0.36 7.66 -1 8 C-0.67 5.36 -0.34 2.72 0 0 Z " fill="#F8F6EB" transform="translate(620,594)"/>
<path d="M0 0 C0.66 0.66 1.32 1.32 2 2 C2.66 1.67 3.32 1.34 4 1 C3.40072174 4.35595828 2.15377564 6.37801226 0 9 C-0.84454356 5.62182575 -1.10844919 3.32534757 0 0 Z " fill="#38372F" transform="translate(259,494)"/>
<path d="M0 0 C1.20628008 2.33214148 2.1654738 4.49642139 3 7 C2.0625 9.1875 2.0625 9.1875 1 11 C-1.78637633 6.8204355 -0.79562512 4.85331323 0 0 Z " fill="#2D5C42" transform="translate(605,469)"/>
<path d="M0 0 C1.89213369 2.38573379 3.02391783 4.07175348 4 7 C3.34 7.66 2.68 8.32 2 9 C1.34 8.67 0.68 8.34 0 8 C0 5.36 0 2.72 0 0 Z " fill="#416852" transform="translate(618,300)"/>
<path d="M0 0 C0.66 0 1.32 0 2 0 C3.6875 2.375 3.6875 2.375 5 5 C4.67 5.66 4.34 6.32 4 7 C2.35 6.01 0.7 5.02 -1 4 C-0.67 2.68 -0.34 1.36 0 0 Z " fill="#D9EAD8" transform="translate(647,563)"/>
<path d="M0 0 C0.33 0 0.66 0 1 0 C1 2.31 1 4.62 1 7 C0.01 7 -0.98 7 -2 7 C-2.33 5.68 -2.66 4.36 -3 3 C-2.01 2.67 -1.02 2.34 0 2 C0 1.34 0 0.68 0 0 Z " fill="#F3F9ED" transform="translate(462,503)"/>
<path d="M0 0 C0.33 0 0.66 0 1 0 C1 2.64 1 5.28 1 8 C0.01 8 -0.98 8 -2 8 C-2.20086443 4.28400809 -2.1519437 3.22791555 0 0 Z " fill="#296045" transform="translate(707,484)"/>
<path d="M0 0 C2 0 2 0 3.6875 1.1875 C5 3 5 3 4.6875 5.6875 C4.460625 6.450625 4.23375 7.21375 4 8 C1.84622436 5.37801226 0.59927826 3.35595828 0 0 Z " fill="#DCEAD9" transform="translate(706,478)"/>
<path d="M0 0 C2.4294516 3.6441774 2.16179575 5.71241272 2 10 C-0.46254526 7.8586563 -1.69050349 6.30129606 -2 3 C-1.34 2.01 -0.68 1.02 0 0 Z " fill="#315D44" transform="translate(589,439)"/>
<path d="M0 0 C0.66 0 1.32 0 2 0 C2.33 3.3 2.66 6.6 3 10 C2.01 10.66 1.02 11.32 0 12 C0 8.04 0 4.08 0 0 Z " fill="#1F1E18" transform="translate(453,402)"/>
<path d="M0 0 C0.66 0.99 1.32 1.98 2 3 C1.5390625 5.04296875 1.5390625 5.04296875 0.625 7.1875 C0.32851563 7.90292969 0.03203125 8.61835938 -0.2734375 9.35546875 C-0.51320313 9.89816406 -0.75296875 10.44085938 -1 11 C-1.66 11 -2.32 11 -3 11 C-2.01 7.37 -1.02 3.74 0 0 Z " fill="#414037" transform="translate(295,384)"/>
<path d="M0 0 C0.99 0 1.98 0 3 0 C4.24546405 2.49092811 3.7767578 3.41080733 3 6 C1.68 5.67 0.36 5.34 -1 5 C-0.67 3.35 -0.34 1.7 0 0 Z " fill="#E1DDD3" transform="translate(390,370)"/>
<path d="M0 0 C0.99 0 1.98 0 3 0 C2.67 2.64 2.34 5.28 2 8 C1.34 8 0.68 8 0 8 C0 5.36 0 2.72 0 0 Z " fill="#22211C" transform="translate(470,216)"/>
<path d="M0 0 C2.625 -0.1875 2.625 -0.1875 5 0 C5 0.99 5 1.98 5 3 C2.69 3 0.38 3 -2 3 C-1.34 2.01 -0.68 1.02 0 0 Z " fill="#2F312B" transform="translate(798,859)"/>
<path d="M0 0 C0.99 0.33 1.98 0.66 3 1 C3 1.99 3 2.98 3 4 C0.5 6.1875 0.5 6.1875 -2 8 C-1.34 5.36 -0.68 2.72 0 0 Z " fill="#2F2F28" transform="translate(201,824)"/>
<path d="M0 0 C3 4 3 4 2.85546875 6.578125 C2.63503906 7.45984375 2.41460938 8.3415625 2.1875 9.25 C1.97480469 10.14203125 1.76210938 11.0340625 1.54296875 11.953125 C1.36378906 12.62859375 1.18460938 13.3040625 1 14 C0.67 14 0.34 14 0 14 C0 9.38 0 4.76 0 0 Z " fill="#F7F7EB" transform="translate(846,819)"/>
<path d="M0 0 C0 1.65 0 3.3 0 5 C-1.65 5.33 -3.3 5.66 -5 6 C-4.6875 4.125 -4.6875 4.125 -4 2 C-1 0 -1 0 0 0 Z " fill="#20211A" transform="translate(191,718)"/>
<path d="M0 0 C0.33 0 0.66 0 1 0 C1.33 2.97 1.66 5.94 2 9 C1.01 9.495 1.01 9.495 0 10 C-0.19412181 8.52168779 -0.38012131 7.04230684 -0.5625 5.5625 C-0.66691406 4.73878906 -0.77132812 3.91507813 -0.87890625 3.06640625 C-0.91886719 2.38449219 -0.95882812 1.70257812 -1 1 C-0.67 0.67 -0.34 0.34 0 0 Z " fill="#1A1B13" transform="translate(203,673)"/>
<path d="M0 0 C0.33 1.32 0.66 2.64 1 4 C1.66 4.66 2.32 5.32 3 6 C1.35 7.32 -0.3 8.64 -2 10 C-1.34 6.7 -0.68 3.4 0 0 Z " fill="#D6D5C9" transform="translate(314,622)"/>
<path d="M0 0 C0.99 0.33 1.98 0.66 3 1 C3 2.98 3 4.96 3 7 C2.01 7.33 1.02 7.66 0 8 C0 5.36 0 2.72 0 0 Z " fill="#21231E" transform="translate(607,584)"/>
<path d="M0 0 C0.12375 0.639375 0.2475 1.27875 0.375 1.9375 C0.58125 2.618125 0.7875 3.29875 1 4 C1.66 4.33 2.32 4.66 3 5 C2.34 6.32 1.68 7.64 1 9 C-1 6 -1 6 -0.625 2.8125 C-0.41875 1.884375 -0.2125 0.95625 0 0 Z " fill="#E9F5E8" transform="translate(749,564)"/>
<path d="M0 0 C1.5625 1.6875 1.5625 1.6875 3 4 C2.6875 6.75 2.6875 6.75 2 9 C0.05276405 6.07914607 -0.55175352 4.40667322 -1 1 C-0.67 0.67 -0.34 0.34 0 0 Z " fill="#306144" transform="translate(643,544)"/>
<path d="M0 0 C1.9451 2.91765 2.45276317 4.62537285 3 8 C1.68 7.67 0.36 7.34 -1 7 C-0.67 4.69 -0.34 2.38 0 0 Z " fill="#527660" transform="translate(451,486)"/>
<path d="M0 0 C0.66 0.33 1.32 0.66 2 1 C2 3.64 2 6.28 2 9 C0.4375 7.875 0.4375 7.875 -1 6 C-0.6875 2.8125 -0.6875 2.8125 0 0 Z " fill="#EBF2E3" transform="translate(711,482)"/>
<path d="M0 0 C0.99 0.33 1.98 0.66 3 1 C3 1.66 3 2.32 3 3 C3.66 3 4.32 3 5 3 C4.67 4.32 4.34 5.64 4 7 C1.49962266 4.82575883 0.56371414 3.26954202 0 0 Z " fill="#426751" transform="translate(600,468)"/>
<path d="M0 0 C2.18975773 3.28463659 2.99806563 6.20696275 4 10 C2.68 9.34 1.36 8.68 0 8 C0 5.36 0 2.72 0 0 Z " fill="#D1E0D0" transform="translate(514,259)"/>
<path d="M0 0 C0.66 0 1.32 0 2 0 C2.33 1.65 2.66 3.3 3 5 C2.01 5.495 2.01 5.495 1 6 C0.34 6.99 -0.32 7.98 -1 9 C-0.67 6.03 -0.34 3.06 0 0 Z " fill="#BFC0B8" transform="translate(216,809)"/>
<path d="M0 0 C1.32 0.33 2.64 0.66 4 1 C4.33 2.65 4.66 4.3 5 6 C4.01 6.495 4.01 6.495 3 7 C2.01 4.69 1.02 2.38 0 0 Z " fill="#436B54" transform="translate(688,639)"/>
<path d="M0 0 C1.32 0.33 2.64 0.66 4 1 C3.67 2.32 3.34 3.64 3 5 C3.66 5.33 4.32 5.66 5 6 C4.34 6.66 3.68 7.32 3 8 C0 2.25 0 2.25 0 0 Z " fill="#3E644C" transform="translate(656,576)"/>
<path d="M0 0 C1.74627478 2.61941217 2.38722388 4.03824877 3 7 C2.01 7.33 1.02 7.66 0 8 C-1.09658936 4.71023192 -0.79953138 3.28696233 0 0 Z " fill="#413E38" transform="translate(594,537)"/>
<path d="M0 0 C0.99 0 1.98 0 3 0 C3.33 2.64 3.66 5.28 4 8 C1.84622436 5.37801226 0.59927826 3.35595828 0 0 Z " fill="#D6E7D7" transform="translate(732,533)"/>
<path d="M0 0 C0.33 0.66 0.66 1.32 1 2 C1.99 2 2.98 2 4 2 C3.67 3.65 3.34 5.3 3 7 C2.01 6.34 1.02 5.68 0 5 C-0.1875 2.375 -0.1875 2.375 0 0 Z " fill="#F6F2E6" transform="translate(250,507)"/>
<path d="M0 0 C2.12508244 3.18762365 2.5020163 5.26512223 3 9 C2.01 8.67 1.02 8.34 0 8 C-0.79953138 4.71303767 -1.09658936 3.28976808 0 0 Z " fill="#DEDBD0" transform="translate(472,474)"/>
<path d="M0 0 C0.99 0.99 1.98 1.98 3 3 C2.67 3.99 2.34 4.98 2 6 C1.34 6 0.68 6 0 6 C-0.66 4.35 -1.32 2.7 -2 1 C-1.34 0.67 -0.68 0.34 0 0 Z " fill="#E0EDDC" transform="translate(692,445)"/>
<path d="M0 0 C2.1519437 3.22791555 2.20086443 4.28400809 2 8 C1.01 8 0.02 8 -1 8 C-0.67 5.36 -0.34 2.72 0 0 Z " fill="#383730" transform="translate(277,439)"/>
<path d="M0 0 C2.15377564 2.62198774 3.40072174 4.64404172 4 8 C3.01 8.495 3.01 8.495 2 9 C2 8.01 2 7.02 2 6 C1.34 6 0.68 6 0 6 C0 4.02 0 2.04 0 0 Z " fill="#54755F" transform="translate(612,287)"/>
<path d="M0 0 C0.99 0.33 1.98 0.66 3 1 C3.33 2.65 3.66 4.3 4 6 C3.01 6.33 2.02 6.66 1 7 C0.34 5.02 -0.32 3.04 -1 1 C-0.67 0.67 -0.34 0.34 0 0 Z " fill="#E5F3E4" transform="translate(580,217)"/>
<path d="M0 0 C2.0625 0.4375 2.0625 0.4375 4 1 C4 1.99 4 2.98 4 4 C2.68 4.33 1.36 4.66 0 5 C-0.5625 3.0625 -0.5625 3.0625 -1 1 C-0.67 0.67 -0.34 0.34 0 0 Z " fill="#325C44" transform="translate(497,207)"/>
</svg>
